<svg width="570" height="362" viewBox="0 0 570 362" fill="none" xmlns="http://www.w3.org/2000/svg">
<rect x="56.0008" y="130" width="69" height="200" fill="#FD5558"/>
<rect x="145" y="230" width="69" height="100" fill="#FD5558"/>
<rect x="234" y="313" width="69" height="17" fill="#FD5558"/>
<rect x="323" y="317" width="69" height="13" fill="#FD5558"/>
<rect x="412" y="322" width="69" height="8" fill="#FD5558"/>
<rect x="501" y="326" width="69" height="4" fill="#FD5558"/>
<path d="M88.382 107H75.008V105.638L81.9953 97.7275C82.8742 96.7314 83.5724 95.8623 84.09 95.1201C84.6076 94.3682 84.9787 93.6846 85.2033 93.0693C85.4377 92.4443 85.5548 91.8389 85.5548 91.2529C85.5548 89.9639 85.174 88.9092 84.4123 88.0889C83.6505 87.2686 82.547 86.8584 81.1017 86.8584C80.1154 86.8584 79.2609 87.0732 78.5382 87.5029C77.8156 87.9326 77.2589 88.5186 76.8683 89.2607C76.4875 90.0029 76.297 90.8525 76.297 91.8096H74.5392C74.5392 90.6377 74.798 89.5635 75.3156 88.5869C75.8429 87.6104 76.5949 86.834 77.5714 86.2578C78.5578 85.6719 79.7345 85.3789 81.1017 85.3789C83.0255 85.3789 84.5392 85.8867 85.6427 86.9023C86.756 87.9082 87.3127 89.3047 87.3127 91.0918C87.3127 91.9512 87.1125 92.8154 86.7121 93.6846C86.3214 94.5537 85.8039 95.418 85.1593 96.2773C84.5246 97.1367 83.8459 97.9766 83.1232 98.7969L77.1613 105.521H88.382V107ZM104.51 98.1084C104.51 100.188 104.251 101.907 103.734 103.265C103.226 104.622 102.484 105.633 101.507 106.297C100.53 106.961 99.3537 107.293 97.9767 107.293C96.6193 107.293 95.4474 106.961 94.4611 106.297C93.4748 105.633 92.7179 104.622 92.1906 103.265C91.6632 101.907 91.3996 100.188 91.3996 98.1084V94.5049C91.3996 92.415 91.6584 90.6963 92.1759 89.3486C92.7033 88.001 93.4552 87 94.4318 86.3457C95.4084 85.6914 96.5802 85.3643 97.9474 85.3643C99.3244 85.3643 100.501 85.6914 101.478 86.3457C102.454 87 103.201 88.001 103.719 89.3486C104.246 90.6963 104.51 92.415 104.51 94.5049V98.1084ZM102.767 94.2852C102.767 92.6641 102.586 91.3018 102.225 90.1982C101.863 89.0947 101.326 88.2646 100.613 87.708C99.9103 87.1416 99.0216 86.8584 97.9474 86.8584C96.8927 86.8584 96.0089 87.1416 95.2961 87.708C94.5832 88.2646 94.0461 89.0947 93.6847 90.1982C93.3332 91.3018 93.1574 92.6641 93.1574 94.2852V98.2988C93.1574 99.8906 93.338 101.248 93.6994 102.371C94.0607 103.494 94.5978 104.349 95.3107 104.935C96.0334 105.521 96.922 105.813 97.9767 105.813C99.0509 105.813 99.9396 105.521 100.643 104.935C101.346 104.349 101.873 103.494 102.225 102.371C102.586 101.248 102.767 99.8906 102.767 98.2988V94.2852Z" fill="#0020B5"/>
<path d="M172.166 217H170.408V197.781L164.622 199.935V198.279L171.873 195.584H172.166V217ZM193.509 208.108C193.509 210.188 193.25 211.907 192.732 213.265C192.225 214.622 191.482 215.633 190.506 216.297C189.529 216.961 188.353 217.293 186.976 217.293C185.618 217.293 184.446 216.961 183.46 216.297C182.474 215.633 181.717 214.622 181.189 213.265C180.662 211.907 180.398 210.188 180.398 208.108V204.505C180.398 202.415 180.657 200.696 181.175 199.349C181.702 198.001 182.454 197 183.431 196.346C184.407 195.691 185.579 195.364 186.946 195.364C188.323 195.364 189.5 195.691 190.477 196.346C191.453 197 192.2 198.001 192.718 199.349C193.245 200.696 193.509 202.415 193.509 204.505V208.108ZM191.766 204.285C191.766 202.664 191.585 201.302 191.224 200.198C190.862 199.095 190.325 198.265 189.612 197.708C188.909 197.142 188.021 196.858 186.946 196.858C185.892 196.858 185.008 197.142 184.295 197.708C183.582 198.265 183.045 199.095 182.684 200.198C182.332 201.302 182.156 202.664 182.156 204.285V208.299C182.156 209.891 182.337 211.248 182.698 212.371C183.06 213.494 183.597 214.349 184.31 214.935C185.032 215.521 185.921 215.813 186.976 215.813C188.05 215.813 188.938 215.521 189.642 214.935C190.345 214.349 190.872 213.494 191.224 212.371C191.585 211.248 191.766 209.891 191.766 208.299V204.285Z" fill="#0020B5"/>
<path d="M258.166 286H256.408V266.781L250.622 268.935V267.279L257.873 264.584H258.166V286ZM268.625 285.282C268.625 286.181 268.439 287.045 268.068 287.875C267.707 288.705 267.204 289.408 266.56 289.984L265.52 289.237C265.822 288.827 266.076 288.422 266.281 288.021C266.486 287.621 266.638 287.196 266.735 286.747C266.843 286.308 266.896 285.834 266.896 285.326V283.231H268.625V285.282ZM285.573 265.668L276.447 286H274.631L283.669 266.151H271.54V264.672H285.573V265.668Z" fill="#0020B5"/>
<path d="M347.166 286H345.408V266.781L339.622 268.935V267.279L346.873 264.584H347.166V286ZM357.625 285.282C357.625 286.181 357.439 287.045 357.068 287.875C356.707 288.705 356.204 289.408 355.56 289.984L354.52 289.237C354.822 288.827 355.076 288.422 355.281 288.021C355.486 287.621 355.638 287.196 355.735 286.747C355.843 286.308 355.896 285.834 355.896 285.326V283.231H357.625V285.282ZM367.117 274.369C368.211 274.369 369.124 274.184 369.856 273.812C370.599 273.432 371.155 272.929 371.526 272.304C371.907 271.679 372.098 270.985 372.098 270.224C372.098 269.364 371.936 268.607 371.614 267.953C371.292 267.299 370.799 266.786 370.135 266.415C369.48 266.044 368.641 265.858 367.615 265.858C366.717 265.858 365.916 266.039 365.213 266.4C364.51 266.762 363.953 267.27 363.543 267.924C363.133 268.578 362.928 269.359 362.928 270.268H361.185C361.185 269.105 361.463 268.085 362.02 267.206C362.576 266.317 363.338 265.624 364.305 265.126C365.281 264.628 366.385 264.379 367.615 264.379C368.875 264.379 369.969 264.608 370.896 265.067C371.834 265.526 372.557 266.195 373.064 267.074C373.582 267.953 373.841 269.022 373.841 270.282C373.841 270.927 373.699 271.562 373.416 272.187C373.143 272.802 372.732 273.363 372.186 273.871C371.639 274.379 370.96 274.784 370.149 275.087C369.339 275.39 368.396 275.541 367.322 275.541H365.33V274.369H367.117ZM365.33 274.721H367.322C368.543 274.721 369.588 274.862 370.457 275.146C371.326 275.419 372.039 275.805 372.596 276.303C373.162 276.801 373.577 277.387 373.841 278.061C374.104 278.725 374.236 279.438 374.236 280.199C374.236 281.498 373.953 282.602 373.387 283.51C372.82 284.408 372.044 285.097 371.058 285.575C370.071 286.054 368.948 286.293 367.688 286.293C366.829 286.293 365.989 286.166 365.169 285.912C364.358 285.658 363.626 285.282 362.972 284.784C362.327 284.276 361.814 283.642 361.434 282.88C361.053 282.108 360.862 281.22 360.862 280.214H362.62C362.62 281.112 362.835 281.908 363.265 282.602C363.694 283.285 364.29 283.827 365.052 284.228C365.813 284.618 366.692 284.813 367.688 284.813C369.202 284.813 370.379 284.423 371.219 283.642C372.068 282.851 372.493 281.723 372.493 280.258C372.493 279.232 372.264 278.397 371.805 277.753C371.355 277.108 370.726 276.635 369.915 276.332C369.114 276.029 368.182 275.878 367.117 275.878H365.33V274.721Z" fill="#0020B5"/>
<path d="M440.868 292.108C440.868 294.188 440.609 295.907 440.092 297.265C439.584 298.622 438.842 299.633 437.865 300.297C436.889 300.961 435.712 301.293 434.335 301.293C432.978 301.293 431.806 300.961 430.819 300.297C429.833 299.633 429.076 298.622 428.549 297.265C428.021 295.907 427.758 294.188 427.758 292.108V288.505C427.758 286.415 428.017 284.696 428.534 283.349C429.061 282.001 429.813 281 430.79 280.346C431.767 279.691 432.938 279.364 434.306 279.364C435.683 279.364 436.859 279.691 437.836 280.346C438.812 281 439.56 282.001 440.077 283.349C440.604 284.696 440.868 286.415 440.868 288.505V292.108ZM439.125 288.285C439.125 286.664 438.944 285.302 438.583 284.198C438.222 283.095 437.685 282.265 436.972 281.708C436.269 281.142 435.38 280.858 434.306 280.858C433.251 280.858 432.367 281.142 431.654 281.708C430.941 282.265 430.404 283.095 430.043 284.198C429.691 285.302 429.516 286.664 429.516 288.285V292.299C429.516 293.891 429.696 295.248 430.058 296.371C430.419 297.494 430.956 298.349 431.669 298.935C432.392 299.521 433.28 299.813 434.335 299.813C435.409 299.813 436.298 299.521 437.001 298.935C437.704 298.349 438.231 297.494 438.583 296.371C438.944 295.248 439.125 293.891 439.125 292.299V288.285ZM446.625 300.282C446.625 301.181 446.439 302.045 446.068 302.875C445.707 303.705 445.204 304.408 444.56 304.984L443.52 304.237C443.822 303.827 444.076 303.422 444.281 303.021C444.486 302.621 444.638 302.196 444.735 301.747C444.843 301.308 444.896 300.834 444.896 300.326V298.231H446.625V300.282ZM463.544 295.346C463.544 296.635 463.241 297.724 462.636 298.612C462.04 299.501 461.229 300.17 460.204 300.619C459.179 301.068 458.031 301.293 456.762 301.293C455.482 301.293 454.33 301.068 453.305 300.619C452.279 300.17 451.464 299.501 450.858 298.612C450.263 297.724 449.965 296.635 449.965 295.346C449.965 294.223 450.258 293.231 450.844 292.372C451.439 291.503 452.245 290.824 453.261 290.336C454.286 289.848 455.443 289.604 456.732 289.604C458.021 289.604 459.179 289.848 460.204 290.336C461.229 290.824 462.04 291.503 462.636 292.372C463.241 293.231 463.544 294.223 463.544 295.346ZM461.786 295.346C461.786 294.438 461.566 293.642 461.127 292.958C460.687 292.274 460.087 291.747 459.325 291.376C458.563 290.995 457.699 290.805 456.732 290.805C455.766 290.805 454.901 290.995 454.14 291.376C453.388 291.747 452.797 292.274 452.367 292.958C451.937 293.642 451.723 294.438 451.723 295.346C451.723 296.293 451.937 297.099 452.367 297.763C452.797 298.427 453.393 298.935 454.154 299.286C454.916 299.638 455.785 299.813 456.762 299.813C457.748 299.813 458.617 299.638 459.369 299.286C460.121 298.935 460.712 298.427 461.142 297.763C461.571 297.099 461.786 296.293 461.786 295.346ZM462.987 285.15C462.987 286.195 462.709 287.128 462.152 287.948C461.605 288.759 460.863 289.398 459.926 289.867C458.988 290.326 457.929 290.556 456.747 290.556C455.556 290.556 454.486 290.326 453.539 289.867C452.602 289.398 451.859 288.759 451.312 287.948C450.775 287.128 450.507 286.195 450.507 285.15C450.507 283.91 450.775 282.865 451.312 282.016C451.859 281.156 452.602 280.502 453.539 280.053C454.486 279.604 455.551 279.379 456.732 279.379C457.914 279.379 458.974 279.604 459.911 280.053C460.858 280.502 461.605 281.156 462.152 282.016C462.709 282.865 462.987 283.91 462.987 285.15ZM461.244 285.136C461.244 284.306 461.044 283.573 460.644 282.938C460.253 282.294 459.716 281.786 459.032 281.415C458.358 281.044 457.592 280.858 456.732 280.858C455.873 280.858 455.106 281.034 454.433 281.386C453.759 281.737 453.227 282.23 452.836 282.865C452.455 283.5 452.265 284.257 452.265 285.136C452.265 285.995 452.455 286.737 452.836 287.362C453.227 287.978 453.759 288.456 454.433 288.798C455.106 289.14 455.878 289.311 456.747 289.311C457.616 289.311 458.383 289.14 459.047 288.798C459.721 288.456 460.253 287.978 460.644 287.362C461.044 286.737 461.244 285.995 461.244 285.136Z" fill="#0020B5"/>
<path d="M529.868 303.108C529.868 305.188 529.609 306.907 529.092 308.265C528.584 309.622 527.842 310.633 526.865 311.297C525.889 311.961 524.712 312.293 523.335 312.293C521.978 312.293 520.806 311.961 519.819 311.297C518.833 310.633 518.076 309.622 517.549 308.265C517.022 306.907 516.758 305.188 516.758 303.108V299.505C516.758 297.415 517.017 295.696 517.534 294.349C518.062 293.001 518.814 292 519.79 291.346C520.767 290.691 521.939 290.364 523.306 290.364C524.683 290.364 525.859 290.691 526.836 291.346C527.813 292 528.56 293.001 529.077 294.349C529.605 295.696 529.868 297.415 529.868 299.505V303.108ZM528.125 299.285C528.125 297.664 527.944 296.302 527.583 295.198C527.222 294.095 526.685 293.265 525.972 292.708C525.269 292.142 524.38 291.858 523.306 291.858C522.251 291.858 521.367 292.142 520.654 292.708C519.942 293.265 519.404 294.095 519.043 295.198C518.692 296.302 518.516 297.664 518.516 299.285V303.299C518.516 304.891 518.696 306.248 519.058 307.371C519.419 308.494 519.956 309.349 520.669 309.935C521.392 310.521 522.28 310.813 523.335 310.813C524.409 310.813 525.298 310.521 526.001 309.935C526.704 309.349 527.232 308.494 527.583 307.371C527.944 306.248 528.125 304.891 528.125 303.299V299.285ZM535.625 311.282C535.625 312.181 535.44 313.045 535.068 313.875C534.707 314.705 534.204 315.408 533.56 315.984L532.52 315.237C532.822 314.827 533.076 314.422 533.281 314.021C533.486 313.621 533.638 313.196 533.735 312.747C533.843 312.308 533.897 311.834 533.897 311.326V309.231H535.625V311.282ZM553.511 306.609H538.408V305.599L548.267 290.672H549.732L547.651 294.29L540.547 305.115H553.511V306.609ZM550.186 312H548.428V290.672H550.186V312Z" fill="#0020B5"/>
<path d="M78.6628 356H76.839V347.482L74.2389 348.354V346.83L78.4357 345.299H78.6628V356ZM83.9069 354.55C84.5758 354.55 85.1349 354.464 85.5841 354.293C86.0382 354.123 86.3971 353.883 86.6608 353.576C86.9245 353.263 87.1125 352.899 87.2248 352.484C87.3419 352.064 87.4005 351.605 87.4005 351.107V349.218C87.4005 348.656 87.3224 348.185 87.1662 347.804C87.0099 347.423 86.8024 347.138 86.5436 346.947C86.2848 346.752 85.9967 346.654 85.6794 346.654C85.3278 346.654 85.0275 346.757 84.7785 346.962C84.5294 347.167 84.339 347.438 84.2072 347.775C84.0802 348.112 84.0168 348.48 84.0168 348.881C84.0168 349.262 84.0778 349.621 84.1999 349.958C84.3219 350.294 84.5075 350.568 84.7565 350.778C85.0055 350.983 85.3205 351.085 85.7013 351.085C85.9601 351.085 86.2018 351.034 86.4264 350.932C86.651 350.824 86.8463 350.685 87.0124 350.514C87.1784 350.343 87.3102 350.15 87.4079 349.936C87.5055 349.716 87.5617 349.491 87.5763 349.262L88.2648 349.503C88.2648 349.865 88.1867 350.224 88.0304 350.58C87.8791 350.937 87.6691 351.261 87.4005 351.554C87.132 351.842 86.817 352.072 86.4557 352.243C86.0993 352.414 85.7135 352.499 85.2985 352.499C84.6149 352.499 84.0436 352.335 83.5846 352.008C83.1305 351.676 82.7887 351.239 82.5592 350.697C82.3297 350.155 82.215 349.564 82.215 348.925C82.215 348.236 82.3517 347.611 82.6252 347.05C82.9035 346.483 83.3014 346.032 83.819 345.695C84.3366 345.358 84.9591 345.189 85.6867 345.189C86.258 345.189 86.7633 345.299 87.2028 345.519C87.6471 345.739 88.0158 346.046 88.3087 346.442C88.6066 346.837 88.8312 347.299 88.9826 347.826C89.1388 348.349 89.2169 348.913 89.2169 349.518V350.163C89.2169 350.802 89.1584 351.415 89.0412 352.001C88.9289 352.587 88.7482 353.126 88.4992 353.62C88.2502 354.113 87.9181 354.542 87.5031 354.909C87.0929 355.275 86.5924 355.561 86.0016 355.766C85.4108 355.966 84.7174 356.066 83.9215 356.066H83.7677V354.55H83.9069ZM95.7428 356H93.9191V347.482L91.319 348.354V346.83L95.5158 345.299H95.7428V356ZM106.392 351.532C106.392 352.636 106.248 353.527 105.96 354.206C105.672 354.879 105.267 355.373 104.744 355.685C104.222 355.993 103.607 356.146 102.899 356.146C102.2 356.146 101.585 355.993 101.053 355.685C100.526 355.373 100.115 354.879 99.8224 354.206C99.5294 353.527 99.383 352.636 99.383 351.532V349.767C99.383 348.659 99.527 347.77 99.8151 347.101C100.108 346.432 100.518 345.946 101.046 345.644C101.573 345.341 102.186 345.189 102.884 345.189C103.592 345.189 104.207 345.341 104.73 345.644C105.257 345.946 105.665 346.432 105.953 347.101C106.246 347.77 106.392 348.659 106.392 349.767V351.532ZM104.576 349.496C104.576 348.798 104.51 348.241 104.378 347.826C104.251 347.411 104.061 347.113 103.807 346.933C103.558 346.747 103.25 346.654 102.884 346.654C102.527 346.654 102.222 346.747 101.968 346.933C101.719 347.113 101.529 347.411 101.397 347.826C101.265 348.241 101.199 348.798 101.199 349.496V351.789C101.199 352.487 101.265 353.048 101.397 353.473C101.534 353.898 101.729 354.208 101.983 354.403C102.237 354.594 102.542 354.689 102.899 354.689C103.265 354.689 103.572 354.594 103.821 354.403C104.07 354.208 104.258 353.898 104.385 353.473C104.512 353.048 104.576 352.487 104.576 351.789V349.496Z" fill="#0020B5"/>
<path d="M16 252.041L16 253.931L5.33594 253.931L5.33594 252.041L16 252.041ZM10.4995 249.946L13.1216 252.422L11.2319 252.751L9.03467 251.008L5.33594 247.947L5.33594 245.64L10.4995 249.946ZM10.9829 251.14L9.69385 249.836L16 245.442L16 247.69L10.9829 251.14ZM16 242.688L16 244.504L8.07519 244.504L8.07519 242.688L16 242.688ZM6.00244 244.622C5.72412 244.622 5.49463 244.531 5.31396 244.351C5.12842 244.17 5.03564 243.918 5.03564 243.596C5.03564 243.274 5.12842 243.02 5.31396 242.834C5.49463 242.649 5.72412 242.556 6.00244 242.556C6.27588 242.556 6.50537 242.649 6.69092 242.834C6.87158 243.02 6.96191 243.274 6.96191 243.596C6.96191 243.918 6.87158 244.17 6.69092 244.351C6.50537 244.531 6.27588 244.622 6.00244 244.622ZM16 238.835L16 240.652L4.75 240.652L4.75 238.835L16 238.835ZM11.9644 237.253C11.1929 237.253 10.5044 237.107 9.89892 236.814C9.29346 236.521 8.81494 236.101 8.46338 235.554C8.10693 235.002 7.92871 234.341 7.92871 233.569C7.92871 232.788 8.10693 232.122 8.46338 231.57C8.81494 231.018 9.29346 230.598 9.89892 230.31C10.5044 230.017 11.1929 229.871 11.9644 229.871L12.1182 229.871C12.8848 229.871 13.5732 230.017 14.1836 230.31C14.7891 230.598 15.2676 231.018 15.6191 231.57C15.9707 232.117 16.1465 232.778 16.1465 233.555C16.1465 234.331 15.9707 234.995 15.6191 235.547C15.2676 236.099 14.7891 236.521 14.1836 236.814C13.5732 237.107 12.8848 237.253 12.1182 237.253L11.9644 237.253ZM12.1182 235.437C12.5869 235.437 13.0166 235.371 13.4072 235.239C13.793 235.107 14.103 234.905 14.3374 234.631C14.5718 234.353 14.689 233.994 14.689 233.555C14.689 233.12 14.5718 232.766 14.3374 232.493C14.103 232.214 13.793 232.012 13.4072 231.885C13.0166 231.753 12.5869 231.687 12.1182 231.687L11.9644 231.687C11.5005 231.687 11.0732 231.753 10.6826 231.885C10.292 232.012 9.97949 232.214 9.74512 232.493C9.50586 232.771 9.38623 233.13 9.38623 233.569C9.38623 234.004 9.50586 234.36 9.74512 234.639C9.97949 234.912 10.292 235.115 10.6826 235.247C11.0732 235.374 11.5005 235.437 11.9644 235.437L12.1182 235.437ZM16 226.575L16 228.398L8.07519 228.398L8.07519 226.685L9.69385 226.575L16 226.575ZM11.7593 227.49C11.022 227.49 10.3652 227.373 9.78906 227.139C9.21289 226.899 8.75879 226.545 8.42676 226.077C8.09473 225.608 7.92871 225.024 7.92871 224.326C7.92871 223.608 8.14599 223.018 8.58056 222.554C9.01514 222.09 9.72803 221.858 10.7192 221.858L16 221.858L16 223.674L10.8877 223.674C10.5166 223.674 10.2236 223.733 10.0088 223.85C9.79394 223.962 9.64258 224.124 9.55469 224.333C9.46191 224.539 9.41553 224.785 9.41553 225.073C9.41553 225.4 9.47656 225.679 9.59863 225.908C9.71582 226.133 9.88183 226.316 10.0967 226.458C10.3115 226.599 10.5605 226.704 10.8437 226.772C11.127 226.836 11.4297 226.868 11.752 226.868L11.7593 227.49ZM11.5029 222.825C10.8535 222.82 10.2578 222.7 9.71582 222.466C9.17383 222.231 8.7417 221.885 8.41943 221.426C8.09228 220.967 7.92871 220.4 7.92871 219.727C7.92871 219.189 8.02881 218.728 8.229 218.342C8.42431 217.957 8.73926 217.659 9.17383 217.449C9.60351 217.239 10.1748 217.134 10.8877 217.134L16 217.134L16 218.958L10.873 218.958C10.4873 218.958 10.1895 219.016 9.97949 219.133C9.76465 219.246 9.61816 219.407 9.54004 219.617C9.45703 219.822 9.41553 220.066 9.41553 220.349C9.41553 220.618 9.46435 220.854 9.56201 221.06C9.65967 221.26 9.79639 221.428 9.97217 221.565C10.1431 221.697 10.3457 221.799 10.5801 221.873C10.8096 221.941 11.0586 221.975 11.3271 221.975L11.5029 222.825ZM16.1465 211.831C16.1465 212.617 15.978 213.296 15.6411 213.867C15.2993 214.438 14.8403 214.878 14.2642 215.186C13.6831 215.493 13.0337 215.647 12.3159 215.647L12.0156 215.647C11.1904 215.647 10.4727 215.491 9.8623 215.178C9.24707 214.866 8.77099 214.438 8.43408 213.896C8.09717 213.35 7.92871 212.732 7.92871 212.043C7.92871 211.282 8.09472 210.649 8.42676 210.146C8.7539 209.644 9.21045 209.268 9.79638 209.019C10.3774 208.77 11.0513 208.645 11.8179 208.645L12.6016 208.645L12.6016 214.775L11.2905 214.775L11.2905 210.439L11.1514 210.439C10.8437 210.449 10.5557 210.508 10.2871 210.615C10.0186 210.723 9.80127 210.894 9.63525 211.128C9.46924 211.357 9.38623 211.665 9.38623 212.051C9.38623 212.437 9.49609 212.761 9.71582 213.025C9.93066 213.289 10.2358 213.489 10.6313 213.625C11.022 213.762 11.4834 213.831 12.0156 213.831L12.3159 213.831C12.7651 213.831 13.168 213.748 13.5244 213.582C13.8809 213.416 14.1641 213.174 14.374 212.856C14.5791 212.539 14.6816 212.161 14.6816 211.721C14.6816 211.296 14.5986 210.92 14.4326 210.593C14.2666 210.261 14.0273 209.976 13.7148 209.736L14.667 208.784C15.043 209.033 15.3848 209.409 15.6924 209.912C15.9951 210.41 16.1465 211.05 16.1465 211.831ZM9.41553 203.613L9.41553 208.11L8.07519 208.11L8.07519 203.613L9.41553 203.613ZM6.13428 205.02L13.7661 205.02C14.0103 205.02 14.1958 204.985 14.3228 204.917C14.4448 204.849 14.5278 204.751 14.5718 204.624C14.6157 204.497 14.6377 204.351 14.6377 204.185C14.6377 204.062 14.6304 203.945 14.6157 203.833C14.6011 203.721 14.5864 203.63 14.5718 203.562L15.9707 203.562C16.0195 203.708 16.061 203.879 16.0952 204.075C16.1294 204.265 16.1465 204.49 16.1465 204.749C16.1465 205.154 16.0732 205.515 15.9268 205.833C15.7803 206.145 15.5435 206.392 15.2163 206.572C14.8843 206.748 14.4448 206.836 13.8979 206.836L6.13428 206.836L6.13428 205.02ZM16.1465 198.765C16.1465 199.551 15.978 200.229 15.6411 200.801C15.2993 201.372 14.8403 201.812 14.2642 202.119C13.6831 202.427 13.0337 202.581 12.3159 202.581L12.0156 202.581C11.1904 202.581 10.4727 202.424 9.8623 202.112C9.24707 201.799 8.77099 201.372 8.43408 200.83C8.09717 200.283 7.92871 199.666 7.92871 198.977C7.92871 198.215 8.09472 197.583 8.42676 197.08C8.7539 196.577 9.21045 196.201 9.79638 195.952C10.3774 195.703 11.0513 195.579 11.8179 195.579L12.6016 195.579L12.6016 201.709L11.2905 201.709L11.2905 197.373L11.1514 197.373C10.8437 197.383 10.5557 197.441 10.2871 197.549C10.0186 197.656 9.80127 197.827 9.63525 198.062C9.46924 198.291 9.38623 198.599 9.38623 198.984C9.38623 199.37 9.49609 199.695 9.71582 199.958C9.93066 200.222 10.2358 200.422 10.6313 200.559C11.022 200.696 11.4834 200.764 12.0156 200.764L12.3159 200.764C12.7651 200.764 13.168 200.681 13.5244 200.515C13.8809 200.349 14.1641 200.107 14.374 199.79C14.5791 199.473 14.6816 199.094 14.6816 198.655C14.6816 198.23 14.5986 197.854 14.4326 197.527C14.2666 197.195 14.0273 196.909 13.7148 196.67L14.667 195.718C15.043 195.967 15.3848 196.343 15.6924 196.846C15.9951 197.344 16.1465 197.983 16.1465 198.765ZM16 192.4L16 194.216L8.07519 194.216L8.07519 192.488L9.62793 192.4L16 192.4ZM9.74511 190.012C9.72558 190.125 9.71093 190.244 9.70117 190.371C9.6914 190.493 9.68652 190.615 9.68652 190.737C9.68652 191.138 9.75976 191.472 9.90625 191.741C10.0478 192.004 10.2529 192.205 10.5215 192.341C10.7852 192.478 11.0977 192.559 11.459 192.583L11.4663 193C10.7974 193 10.1968 192.913 9.66455 192.737C9.13232 192.561 8.70996 192.297 8.39746 191.946C8.08496 191.594 7.92871 191.155 7.92871 190.627C7.92871 190.525 7.93847 190.41 7.958 190.283C7.97754 190.156 7.99951 190.061 8.02392 189.998L9.74511 190.012ZM19.0469 183.347L19.0469 185.164L8.07519 185.164L8.07519 183.486L9.59863 183.347L19.0469 183.347ZM12.1108 178.206C12.8823 178.206 13.5732 178.325 14.1836 178.564C14.7891 178.799 15.2676 179.146 15.6191 179.604C15.9707 180.059 16.1465 180.615 16.1465 181.274C16.1465 181.938 15.9853 182.49 15.6631 182.93C15.3359 183.364 14.8867 183.704 14.3154 183.948C13.7441 184.192 13.0923 184.36 12.3599 184.453L11.8398 184.453C11.0586 184.36 10.3774 184.192 9.79638 183.948C9.21045 183.704 8.7539 183.364 8.42675 182.93C8.09472 182.495 7.92871 181.951 7.92871 181.296C7.92871 180.627 8.09716 180.063 8.43408 179.604C8.77099 179.146 9.24218 178.799 9.84765 178.564C10.4531 178.325 11.1562 178.206 11.957 178.206L12.1108 178.206ZM11.957 180.022C11.4834 180.022 11.0537 180.083 10.668 180.205C10.2822 180.322 9.97705 180.513 9.75244 180.776C9.52783 181.035 9.41552 181.375 9.41552 181.794C9.41552 182.097 9.46679 182.358 9.56933 182.578C9.66699 182.798 9.80615 182.983 9.98681 183.135C10.1675 183.281 10.3823 183.396 10.6313 183.479C10.8755 183.562 11.144 183.621 11.437 183.655L12.7627 183.655C13.1143 183.596 13.4365 183.499 13.7295 183.362C14.0225 183.225 14.2568 183.03 14.4326 182.776C14.6035 182.517 14.689 182.185 14.689 181.78C14.689 181.36 14.5718 181.021 14.3374 180.762C14.0981 180.503 13.7856 180.315 13.3999 180.198C13.0093 180.081 12.5796 180.022 12.1108 180.022L11.957 180.022ZM16 174.91L16 176.726L8.07519 176.726L8.07519 174.998L9.62793 174.91L16 174.91ZM9.74511 172.522C9.72558 172.634 9.71093 172.754 9.70117 172.881C9.6914 173.003 9.68652 173.125 9.68652 173.247C9.68652 173.647 9.75976 173.982 9.90625 174.25C10.0478 174.514 10.2529 174.714 10.5215 174.851C10.7852 174.988 11.0977 175.068 11.459 175.093L11.4663 175.51C10.7974 175.51 10.1968 175.422 9.66455 175.247C9.13232 175.071 8.70996 174.807 8.39746 174.456C8.08496 174.104 7.92871 173.665 7.92871 173.137C7.92871 173.035 7.93847 172.92 7.958 172.793C7.97754 172.666 7.99951 172.571 8.02392 172.507L9.74511 172.522ZM11.9644 171.907C11.1929 171.907 10.5044 171.76 9.89892 171.467C9.29345 171.174 8.81494 170.754 8.46338 170.208C8.10693 169.656 7.92871 168.994 7.92871 168.223C7.92871 167.441 8.10693 166.775 8.46338 166.223C8.81494 165.671 9.29345 165.251 9.89892 164.963C10.5044 164.67 11.1929 164.524 11.9644 164.524L12.1182 164.524C12.8848 164.524 13.5732 164.67 14.1836 164.963C14.7891 165.251 15.2676 165.671 15.6191 166.223C15.9707 166.77 16.1465 167.432 16.1465 168.208C16.1465 168.984 15.9707 169.648 15.6191 170.2C15.2676 170.752 14.7891 171.174 14.1836 171.467C13.5732 171.76 12.8848 171.907 12.1182 171.907L11.9644 171.907ZM12.1182 170.09C12.5869 170.09 13.0166 170.024 13.4072 169.893C13.793 169.761 14.103 169.558 14.3374 169.285C14.5718 169.006 14.689 168.647 14.689 168.208C14.689 167.773 14.5718 167.419 14.3374 167.146C14.103 166.868 13.793 166.665 13.4072 166.538C13.0166 166.406 12.5869 166.34 12.1182 166.34L11.9644 166.34C11.5005 166.34 11.0732 166.406 10.6826 166.538C10.292 166.665 9.97949 166.868 9.74511 167.146C9.50586 167.424 9.38623 167.783 9.38623 168.223C9.38623 168.657 9.50586 169.014 9.74511 169.292C9.97949 169.565 10.292 169.768 10.6826 169.9C11.0732 170.027 11.5005 170.09 11.9644 170.09L12.1182 170.09ZM16 155.046L16 156.921L5.33593 156.921L5.33593 155.046L16 155.046ZM6.85937 151.721L6.85937 160.217L5.33593 160.217L5.33593 151.721L6.85937 151.721ZM10.646 147.07C10.2358 147.07 9.90869 147.185 9.66455 147.415C9.42041 147.639 9.29834 147.981 9.29834 148.44C9.29834 148.713 9.34716 148.953 9.44482 149.158C9.53759 149.363 9.66455 149.521 9.82568 149.634C9.98681 149.746 10.1699 149.802 10.375 149.802L10.375 151.619C9.95019 151.619 9.55224 151.484 9.18115 151.216C8.80517 150.947 8.50244 150.569 8.27294 150.081C8.04345 149.587 7.92871 149.006 7.92871 148.337C7.92871 147.742 8.0288 147.212 8.229 146.748C8.42919 146.284 8.73193 145.92 9.1372 145.657C9.54248 145.388 10.0503 145.254 10.6606 145.254L14.1543 145.254C14.5254 145.254 14.8525 145.227 15.1357 145.173C15.4189 145.12 15.6655 145.044 15.8755 144.946L16 144.946L16 146.807C15.8096 146.89 15.563 146.956 15.2602 147.004C14.9575 147.048 14.6621 147.07 14.374 147.07L10.646 147.07ZM12.2939 146.792L12.2939 148.037C12.2939 148.682 12.4136 149.167 12.6528 149.495C12.8872 149.817 13.207 149.978 13.6123 149.978C13.9248 149.978 14.186 149.871 14.396 149.656C14.6011 149.441 14.7036 149.138 14.7036 148.748C14.7036 148.391 14.6328 148.081 14.4912 147.817C14.3447 147.549 14.1665 147.339 13.9565 147.187C13.7417 147.036 13.5415 146.958 13.356 146.953L14.1689 146.375C14.3691 146.433 14.584 146.533 14.8135 146.675C15.0381 146.812 15.2529 146.995 15.458 147.224C15.6582 147.449 15.8242 147.717 15.9561 148.03C16.083 148.337 16.1465 148.696 16.1465 149.106C16.1465 149.624 16.0439 150.085 15.8389 150.491C15.6338 150.896 15.353 151.216 14.9966 151.45C14.6352 151.68 14.23 151.794 13.7808 151.794C12.9409 151.794 12.2964 151.479 11.8472 150.85C11.3979 150.22 11.1733 149.326 11.1733 148.169L11.1733 146.807L12.2939 146.792ZM8.07519 136.699L15.7729 136.699C16.4858 136.699 17.0913 136.853 17.5894 137.161C18.0923 137.468 18.4731 137.896 18.7319 138.442C18.9907 138.984 19.1201 139.614 19.1201 140.332C19.1201 140.635 19.0762 140.972 18.9883 141.343C18.9053 141.709 18.7685 142.065 18.5781 142.412C18.3877 142.759 18.1387 143.049 17.831 143.284L16.7324 142.434C17.0596 142.151 17.3013 141.841 17.4575 141.504C17.6186 141.162 17.6992 140.803 17.6992 140.427C17.6992 139.836 17.5356 139.373 17.2085 139.036C16.8813 138.694 16.4126 138.523 15.8022 138.523L9.87695 138.523L8.07519 138.354L8.07519 136.699ZM11.9717 143.73C11.1709 143.73 10.4678 143.604 9.8623 143.35C9.25195 143.091 8.77832 142.725 8.4414 142.251C8.0996 141.772 7.92871 141.206 7.92871 140.552C7.92871 140.034 8.02392 139.592 8.21435 139.226C8.3999 138.86 8.66845 138.557 9.02001 138.318C9.36669 138.074 9.78173 137.883 10.2651 137.747C10.7436 137.605 11.2734 137.5 11.8545 137.432L12.2793 137.432C13.0312 137.52 13.6977 137.683 14.2788 137.922C14.8599 138.162 15.3164 138.499 15.6484 138.933C15.9805 139.363 16.1465 139.907 16.1465 140.566C16.1465 141.211 15.9731 141.77 15.6265 142.244C15.2749 142.717 14.7964 143.083 14.1909 143.342C13.5854 143.601 12.897 143.73 12.1255 143.73L11.9717 143.73ZM12.1255 141.914C12.5942 141.914 13.0215 141.851 13.4072 141.724C13.7881 141.597 14.0933 141.401 14.3227 141.138C14.5474 140.869 14.6597 140.525 14.6597 140.105C14.6597 139.695 14.5742 139.36 14.4033 139.102C14.2275 138.843 13.9907 138.643 13.6929 138.501C13.395 138.354 13.0605 138.254 12.6894 138.201L11.4517 138.201C11.1587 138.23 10.8877 138.289 10.6387 138.376C10.3896 138.459 10.1748 138.579 9.99414 138.735C9.81347 138.887 9.67187 139.075 9.56933 139.299C9.46679 139.524 9.41552 139.788 9.41552 140.09C9.41552 140.51 9.53027 140.854 9.75976 141.123C9.98437 141.392 10.292 141.592 10.6826 141.724C11.0684 141.851 11.498 141.914 11.9717 141.914L12.1255 141.914Z" fill="#0020B5"/>
<path d="M167.662 356H165.838V347.482L163.238 348.354V346.83L167.435 345.299H167.662V356ZM172.906 354.55C173.575 354.55 174.134 354.464 174.583 354.293C175.037 354.123 175.396 353.883 175.66 353.576C175.923 353.263 176.111 352.899 176.224 352.484C176.341 352.064 176.399 351.605 176.399 351.107V349.218C176.399 348.656 176.321 348.185 176.165 347.804C176.009 347.423 175.801 347.138 175.542 346.947C175.284 346.752 174.996 346.654 174.678 346.654C174.327 346.654 174.026 346.757 173.777 346.962C173.528 347.167 173.338 347.438 173.206 347.775C173.079 348.112 173.016 348.48 173.016 348.881C173.016 349.262 173.077 349.621 173.199 349.958C173.321 350.294 173.506 350.568 173.755 350.778C174.004 350.983 174.319 351.085 174.7 351.085C174.959 351.085 175.201 351.034 175.425 350.932C175.65 350.824 175.845 350.685 176.011 350.514C176.177 350.343 176.309 350.15 176.407 349.936C176.504 349.716 176.561 349.491 176.575 349.262L177.264 349.503C177.264 349.865 177.186 350.224 177.029 350.58C176.878 350.937 176.668 351.261 176.399 351.554C176.131 351.842 175.816 352.072 175.455 352.243C175.098 352.414 174.712 352.499 174.297 352.499C173.614 352.499 173.042 352.335 172.583 352.008C172.129 351.676 171.788 351.239 171.558 350.697C171.329 350.155 171.214 349.564 171.214 348.925C171.214 348.236 171.351 347.611 171.624 347.05C171.902 346.483 172.3 346.032 172.818 345.695C173.335 345.358 173.958 345.189 174.686 345.189C175.257 345.189 175.762 345.299 176.202 345.519C176.646 345.739 177.015 346.046 177.308 346.442C177.605 346.837 177.83 347.299 177.981 347.826C178.138 348.349 178.216 348.913 178.216 349.518V350.163C178.216 350.802 178.157 351.415 178.04 352.001C177.928 352.587 177.747 353.126 177.498 353.62C177.249 354.113 176.917 354.542 176.502 354.909C176.092 355.275 175.591 355.561 175 355.766C174.41 355.966 173.716 356.066 172.92 356.066H172.767V354.55H172.906ZM180.311 350.712L180.896 345.336H186.668V346.889H182.405L182.12 349.43C182.281 349.337 182.505 349.245 182.793 349.152C183.086 349.054 183.418 349.005 183.79 349.005C184.463 349.005 185.04 349.149 185.518 349.438C185.997 349.726 186.363 350.138 186.617 350.675C186.875 351.208 187.005 351.845 187.005 352.587C187.005 353.236 186.878 353.832 186.624 354.374C186.37 354.911 185.984 355.341 185.467 355.663C184.949 355.985 184.292 356.146 183.497 356.146C183.047 356.146 182.618 356.081 182.208 355.949C181.802 355.817 181.436 355.622 181.109 355.363C180.787 355.104 180.528 354.787 180.333 354.411C180.137 354.03 180.025 353.593 179.996 353.1H181.775C181.834 353.607 182.012 354 182.31 354.279C182.613 354.552 183.006 354.689 183.489 354.689C183.87 354.689 184.188 354.596 184.441 354.411C184.695 354.225 184.883 353.969 185.005 353.642C185.127 353.314 185.188 352.941 185.188 352.521C185.188 352.116 185.118 351.759 184.976 351.452C184.839 351.139 184.632 350.895 184.354 350.719C184.075 350.539 183.729 350.448 183.313 350.448C182.898 350.448 182.583 350.509 182.369 350.631C182.154 350.749 181.954 350.895 181.768 351.071L180.311 350.712ZM195.391 351.532C195.391 352.636 195.247 353.527 194.959 354.206C194.671 354.879 194.266 355.373 193.743 355.685C193.221 355.993 192.605 356.146 191.897 356.146C191.199 356.146 190.584 355.993 190.052 355.685C189.524 355.373 189.114 354.879 188.821 354.206C188.528 353.527 188.382 352.636 188.382 351.532V349.767C188.382 348.659 188.526 347.77 188.814 347.101C189.107 346.432 189.517 345.946 190.044 345.644C190.572 345.341 191.185 345.189 191.883 345.189C192.591 345.189 193.206 345.341 193.729 345.644C194.256 345.946 194.664 346.432 194.952 347.101C195.245 347.77 195.391 348.659 195.391 349.767V351.532ZM193.575 349.496C193.575 348.798 193.509 348.241 193.377 347.826C193.25 347.411 193.06 347.113 192.806 346.933C192.557 346.747 192.249 346.654 191.883 346.654C191.526 346.654 191.221 346.747 190.967 346.933C190.718 347.113 190.528 347.411 190.396 347.826C190.264 348.241 190.198 348.798 190.198 349.496V351.789C190.198 352.487 190.264 353.048 190.396 353.473C190.533 353.898 190.728 354.208 190.982 354.403C191.236 354.594 191.541 354.689 191.897 354.689C192.264 354.689 192.571 354.594 192.82 354.403C193.069 354.208 193.257 353.898 193.384 353.473C193.511 353.048 193.575 352.487 193.575 351.789V349.496Z" fill="#0020B5"/>
<path d="M256.662 356H254.838V347.482L252.238 348.354V346.83L256.435 345.299H256.662V356ZM261.906 354.55C262.575 354.55 263.134 354.464 263.583 354.293C264.037 354.123 264.396 353.883 264.66 353.576C264.923 353.263 265.111 352.899 265.224 352.484C265.341 352.064 265.399 351.605 265.399 351.107V349.218C265.399 348.656 265.321 348.185 265.165 347.804C265.009 347.423 264.801 347.138 264.542 346.947C264.284 346.752 263.996 346.654 263.678 346.654C263.327 346.654 263.026 346.757 262.777 346.962C262.528 347.167 262.338 347.438 262.206 347.775C262.079 348.112 262.016 348.48 262.016 348.881C262.016 349.262 262.077 349.621 262.199 349.958C262.321 350.294 262.506 350.568 262.755 350.778C263.004 350.983 263.319 351.085 263.7 351.085C263.959 351.085 264.201 351.034 264.425 350.932C264.65 350.824 264.845 350.685 265.011 350.514C265.177 350.343 265.309 350.15 265.407 349.936C265.504 349.716 265.561 349.491 265.575 349.262L266.264 349.503C266.264 349.865 266.186 350.224 266.029 350.58C265.878 350.937 265.668 351.261 265.399 351.554C265.131 351.842 264.816 352.072 264.455 352.243C264.098 352.414 263.712 352.499 263.297 352.499C262.614 352.499 262.042 352.335 261.583 352.008C261.129 351.676 260.788 351.239 260.558 350.697C260.329 350.155 260.214 349.564 260.214 348.925C260.214 348.236 260.351 347.611 260.624 347.05C260.902 346.483 261.3 346.032 261.818 345.695C262.335 345.358 262.958 345.189 263.686 345.189C264.257 345.189 264.762 345.299 265.202 345.519C265.646 345.739 266.015 346.046 266.308 346.442C266.605 346.837 266.83 347.299 266.981 347.826C267.138 348.349 267.216 348.913 267.216 349.518V350.163C267.216 350.802 267.157 351.415 267.04 352.001C266.928 352.587 266.747 353.126 266.498 353.62C266.249 354.113 265.917 354.542 265.502 354.909C265.092 355.275 264.591 355.561 264 355.766C263.41 355.966 262.716 356.066 261.92 356.066H261.767V354.55H261.906ZM275.866 353.085C275.866 353.749 275.712 354.308 275.404 354.762C275.097 355.216 274.679 355.561 274.152 355.795C273.624 356.029 273.026 356.146 272.357 356.146C271.688 356.146 271.088 356.029 270.556 355.795C270.023 355.561 269.601 355.216 269.289 354.762C268.981 354.308 268.827 353.749 268.827 353.085C268.827 352.504 268.978 351.991 269.281 351.547C269.589 351.103 270.006 350.758 270.534 350.514C271.061 350.265 271.664 350.141 272.343 350.141C273.017 350.141 273.62 350.265 274.152 350.514C274.684 350.758 275.102 351.103 275.404 351.547C275.712 351.991 275.866 352.504 275.866 353.085ZM274.049 352.99C274.049 352.638 273.976 352.333 273.83 352.074C273.688 351.815 273.49 351.615 273.236 351.474C272.982 351.327 272.685 351.254 272.343 351.254C272.001 351.254 271.703 351.327 271.449 351.474C271.195 351.615 270.998 351.815 270.856 352.074C270.719 352.333 270.651 352.638 270.651 352.99C270.651 353.341 270.719 353.644 270.856 353.898C270.998 354.152 271.195 354.347 271.449 354.484C271.708 354.621 272.011 354.689 272.357 354.689C272.704 354.689 273.004 354.621 273.258 354.484C273.512 354.347 273.707 354.152 273.844 353.898C273.981 353.644 274.049 353.341 274.049 352.99ZM275.631 348.148C275.631 348.681 275.49 349.154 275.207 349.569C274.923 349.984 274.535 350.312 274.042 350.551C273.549 350.785 272.987 350.902 272.357 350.902C271.718 350.902 271.149 350.785 270.651 350.551C270.158 350.312 269.77 349.984 269.486 349.569C269.203 349.154 269.061 348.681 269.061 348.148C269.061 347.514 269.203 346.977 269.486 346.537C269.77 346.098 270.158 345.763 270.651 345.534C271.149 345.304 271.715 345.189 272.35 345.189C272.985 345.189 273.549 345.304 274.042 345.534C274.54 345.763 274.928 346.098 275.207 346.537C275.49 346.977 275.631 347.514 275.631 348.148ZM273.815 348.214C273.815 347.907 273.754 347.636 273.632 347.401C273.515 347.167 273.346 346.984 273.126 346.852C272.907 346.715 272.648 346.647 272.35 346.647C272.047 346.647 271.786 346.71 271.566 346.837C271.352 346.964 271.183 347.145 271.061 347.379C270.944 347.614 270.885 347.892 270.885 348.214C270.885 348.532 270.944 348.81 271.061 349.049C271.183 349.284 271.354 349.467 271.574 349.599C271.793 349.726 272.055 349.789 272.357 349.789C272.66 349.789 272.919 349.726 273.134 349.599C273.349 349.467 273.515 349.284 273.632 349.049C273.754 348.81 273.815 348.532 273.815 348.214ZM277.851 350.712L278.436 345.336H284.208V346.889H279.945L279.66 349.43C279.821 349.337 280.045 349.245 280.333 349.152C280.626 349.054 280.958 349.005 281.33 349.005C282.003 349.005 282.58 349.149 283.058 349.438C283.537 349.726 283.903 350.138 284.157 350.675C284.415 351.208 284.545 351.845 284.545 352.587C284.545 353.236 284.418 353.832 284.164 354.374C283.91 354.911 283.524 355.341 283.007 355.663C282.489 355.985 281.832 356.146 281.037 356.146C280.587 356.146 280.158 356.081 279.748 355.949C279.342 355.817 278.976 355.622 278.649 355.363C278.327 355.104 278.068 354.787 277.873 354.411C277.677 354.03 277.565 353.593 277.536 353.1H279.315C279.374 353.607 279.552 354 279.85 354.279C280.153 354.552 280.546 354.689 281.029 354.689C281.41 354.689 281.728 354.596 281.981 354.411C282.235 354.225 282.423 353.969 282.545 353.642C282.667 353.314 282.728 352.941 282.728 352.521C282.728 352.116 282.658 351.759 282.516 351.452C282.379 351.139 282.172 350.895 281.894 350.719C281.615 350.539 281.269 350.448 280.853 350.448C280.438 350.448 280.124 350.509 279.909 350.631C279.694 350.749 279.494 350.895 279.308 351.071L277.851 350.712Z" fill="#0020B5"/>
<path d="M345.662 356H343.838V347.482L341.238 348.354V346.83L345.435 345.299H345.662V356ZM350.906 354.55C351.575 354.55 352.134 354.464 352.583 354.293C353.037 354.123 353.396 353.883 353.66 353.576C353.923 353.263 354.111 352.899 354.224 352.484C354.341 352.064 354.399 351.605 354.399 351.107V349.218C354.399 348.656 354.321 348.185 354.165 347.804C354.009 347.423 353.801 347.138 353.542 346.947C353.284 346.752 352.996 346.654 352.678 346.654C352.327 346.654 352.026 346.757 351.777 346.962C351.528 347.167 351.338 347.438 351.206 347.775C351.079 348.112 351.016 348.48 351.016 348.881C351.016 349.262 351.077 349.621 351.199 349.958C351.321 350.294 351.506 350.568 351.755 350.778C352.004 350.983 352.319 351.085 352.7 351.085C352.959 351.085 353.201 351.034 353.425 350.932C353.65 350.824 353.845 350.685 354.011 350.514C354.177 350.343 354.309 350.15 354.407 349.936C354.504 349.716 354.561 349.491 354.575 349.262L355.264 349.503C355.264 349.865 355.186 350.224 355.029 350.58C354.878 350.937 354.668 351.261 354.399 351.554C354.131 351.842 353.816 352.072 353.455 352.243C353.098 352.414 352.712 352.499 352.297 352.499C351.614 352.499 351.042 352.335 350.583 352.008C350.129 351.676 349.788 351.239 349.558 350.697C349.329 350.155 349.214 349.564 349.214 348.925C349.214 348.236 349.351 347.611 349.624 347.05C349.902 346.483 350.3 346.032 350.818 345.695C351.335 345.358 351.958 345.189 352.686 345.189C353.257 345.189 353.762 345.299 354.202 345.519C354.646 345.739 355.015 346.046 355.308 346.442C355.605 346.837 355.83 347.299 355.981 347.826C356.138 348.349 356.216 348.913 356.216 349.518V350.163C356.216 350.802 356.157 351.415 356.04 352.001C355.928 352.587 355.747 353.126 355.498 353.62C355.249 354.113 354.917 354.542 354.502 354.909C354.092 355.275 353.591 355.561 353 355.766C352.41 355.966 351.716 356.066 350.92 356.066H350.767V354.55H350.906ZM359.446 354.55C360.115 354.55 360.674 354.464 361.123 354.293C361.577 354.123 361.936 353.883 362.2 353.576C362.463 353.263 362.651 352.899 362.764 352.484C362.881 352.064 362.939 351.605 362.939 351.107V349.218C362.939 348.656 362.861 348.185 362.705 347.804C362.549 347.423 362.341 347.138 362.082 346.947C361.824 346.752 361.536 346.654 361.218 346.654C360.867 346.654 360.566 346.757 360.317 346.962C360.068 347.167 359.878 347.438 359.746 347.775C359.619 348.112 359.556 348.48 359.556 348.881C359.556 349.262 359.617 349.621 359.739 349.958C359.861 350.294 360.046 350.568 360.295 350.778C360.544 350.983 360.859 351.085 361.24 351.085C361.499 351.085 361.741 351.034 361.965 350.932C362.19 350.824 362.385 350.685 362.551 350.514C362.717 350.343 362.849 350.15 362.947 349.936C363.044 349.716 363.101 349.491 363.115 349.262L363.804 349.503C363.804 349.865 363.726 350.224 363.569 350.58C363.418 350.937 363.208 351.261 362.939 351.554C362.671 351.842 362.356 352.072 361.995 352.243C361.638 352.414 361.252 352.499 360.837 352.499C360.154 352.499 359.582 352.335 359.124 352.008C358.669 351.676 358.328 351.239 358.098 350.697C357.869 350.155 357.754 349.564 357.754 348.925C357.754 348.236 357.891 347.611 358.164 347.05C358.442 346.483 358.84 346.032 359.358 345.695C359.875 345.358 360.498 345.189 361.226 345.189C361.797 345.189 362.302 345.299 362.742 345.519C363.186 345.739 363.555 346.046 363.848 346.442C364.145 346.837 364.37 347.299 364.521 347.826C364.678 348.349 364.756 348.913 364.756 349.518V350.163C364.756 350.802 364.697 351.415 364.58 352.001C364.468 352.587 364.287 353.126 364.038 353.62C363.789 354.113 363.457 354.542 363.042 354.909C362.632 355.275 362.131 355.561 361.54 355.766C360.95 355.966 360.256 356.066 359.46 356.066H359.307V354.55H359.446ZM366.851 350.712L367.436 345.336H373.208V346.889H368.945L368.66 349.43C368.821 349.337 369.045 349.245 369.333 349.152C369.626 349.054 369.958 349.005 370.33 349.005C371.003 349.005 371.58 349.149 372.058 349.438C372.537 349.726 372.903 350.138 373.157 350.675C373.415 351.208 373.545 351.845 373.545 352.587C373.545 353.236 373.418 353.832 373.164 354.374C372.91 354.911 372.524 355.341 372.007 355.663C371.489 355.985 370.832 356.146 370.037 356.146C369.587 356.146 369.158 356.081 368.748 355.949C368.342 355.817 367.976 355.622 367.649 355.363C367.327 355.104 367.068 354.787 366.873 354.411C366.677 354.03 366.565 353.593 366.536 353.1H368.315C368.374 353.607 368.552 354 368.85 354.279C369.153 354.552 369.546 354.689 370.029 354.689C370.41 354.689 370.728 354.596 370.981 354.411C371.235 354.225 371.423 353.969 371.545 353.642C371.667 353.314 371.728 352.941 371.728 352.521C371.728 352.116 371.658 351.759 371.516 351.452C371.379 351.139 371.172 350.895 370.894 350.719C370.615 350.539 370.269 350.448 369.853 350.448C369.438 350.448 369.124 350.509 368.909 350.631C368.694 350.749 368.494 350.895 368.308 351.071L366.851 350.712Z" fill="#0020B5"/>
<path d="M436.976 356H429.791V354.748L433.263 350.976C433.644 350.556 433.941 350.192 434.156 349.884C434.376 349.577 434.53 349.301 434.618 349.057C434.706 348.808 434.749 348.566 434.749 348.332C434.749 347.838 434.613 347.436 434.339 347.123C434.071 346.806 433.685 346.647 433.182 346.647C432.791 346.647 432.462 346.732 432.193 346.903C431.93 347.069 431.732 347.299 431.6 347.592C431.468 347.885 431.402 348.222 431.402 348.603H429.586C429.586 347.978 429.728 347.406 430.011 346.889C430.294 346.371 430.707 345.958 431.249 345.651C431.79 345.343 432.442 345.189 433.204 345.189C434.278 345.189 435.108 345.456 435.694 345.988C436.28 346.52 436.573 347.238 436.573 348.141C436.573 348.59 436.478 349.032 436.288 349.467C436.097 349.901 435.836 350.336 435.504 350.771C435.172 351.2 434.791 351.642 434.361 352.096L432.083 354.542H436.976V356ZM445.311 351.532C445.311 352.636 445.167 353.527 444.879 354.206C444.591 354.879 444.186 355.373 443.663 355.685C443.141 355.993 442.525 356.146 441.817 356.146C441.119 356.146 440.504 355.993 439.972 355.685C439.444 355.373 439.034 354.879 438.741 354.206C438.448 353.527 438.302 352.636 438.302 351.532V349.767C438.302 348.659 438.446 347.77 438.734 347.101C439.027 346.432 439.437 345.946 439.964 345.644C440.492 345.341 441.104 345.189 441.803 345.189C442.511 345.189 443.126 345.341 443.648 345.644C444.176 345.946 444.583 346.432 444.872 347.101C445.165 347.77 445.311 348.659 445.311 349.767V351.532ZM443.495 349.496C443.495 348.798 443.429 348.241 443.297 347.826C443.17 347.411 442.979 347.113 442.726 346.933C442.477 346.747 442.169 346.654 441.803 346.654C441.446 346.654 441.141 346.747 440.887 346.933C440.638 347.113 440.448 347.411 440.316 347.826C440.184 348.241 440.118 348.798 440.118 349.496V351.789C440.118 352.487 440.184 353.048 440.316 353.473C440.453 353.898 440.648 354.208 440.902 354.403C441.156 354.594 441.461 354.689 441.817 354.689C442.184 354.689 442.491 354.594 442.74 354.403C442.989 354.208 443.177 353.898 443.304 353.473C443.431 353.048 443.495 352.487 443.495 351.789V349.496ZM453.851 351.532C453.851 352.636 453.707 353.527 453.419 354.206C453.131 354.879 452.726 355.373 452.203 355.685C451.681 355.993 451.065 356.146 450.357 356.146C449.659 356.146 449.044 355.993 448.512 355.685C447.984 355.373 447.574 354.879 447.281 354.206C446.988 353.527 446.842 352.636 446.842 351.532V349.767C446.842 348.659 446.986 347.77 447.274 347.101C447.567 346.432 447.977 345.946 448.504 345.644C449.032 345.341 449.645 345.189 450.343 345.189C451.051 345.189 451.666 345.341 452.188 345.644C452.716 345.946 453.124 346.432 453.412 347.101C453.705 347.77 453.851 348.659 453.851 349.767V351.532ZM452.035 349.496C452.035 348.798 451.969 348.241 451.837 347.826C451.71 347.411 451.52 347.113 451.266 346.933C451.017 346.747 450.709 346.654 450.343 346.654C449.986 346.654 449.681 346.747 449.427 346.933C449.178 347.113 448.988 347.411 448.856 347.826C448.724 348.241 448.658 348.798 448.658 349.496V351.789C448.658 352.487 448.724 353.048 448.856 353.473C448.993 353.898 449.188 354.208 449.442 354.403C449.696 354.594 450.001 354.689 450.357 354.689C450.724 354.689 451.031 354.594 451.28 354.403C451.529 354.208 451.717 353.898 451.844 353.473C451.971 353.048 452.035 352.487 452.035 351.789V349.496ZM455.851 350.712L456.436 345.336H462.208V346.889H457.945L457.66 349.43C457.821 349.337 458.045 349.245 458.333 349.152C458.626 349.054 458.958 349.005 459.33 349.005C460.003 349.005 460.58 349.149 461.058 349.438C461.537 349.726 461.903 350.138 462.157 350.675C462.415 351.208 462.545 351.845 462.545 352.587C462.545 353.236 462.418 353.832 462.164 354.374C461.91 354.911 461.524 355.341 461.007 355.663C460.489 355.985 459.832 356.146 459.037 356.146C458.587 356.146 458.158 356.081 457.748 355.949C457.342 355.817 456.976 355.622 456.649 355.363C456.327 355.104 456.068 354.787 455.873 354.411C455.677 354.03 455.565 353.593 455.536 353.1H457.315C457.374 353.607 457.552 354 457.85 354.279C458.153 354.552 458.546 354.689 459.029 354.689C459.41 354.689 459.728 354.596 459.981 354.411C460.235 354.225 460.423 353.969 460.545 353.642C460.667 353.314 460.728 352.941 460.728 352.521C460.728 352.116 460.658 351.759 460.516 351.452C460.379 351.139 460.172 350.895 459.894 350.719C459.615 350.539 459.269 350.448 458.853 350.448C458.438 350.448 458.124 350.509 457.909 350.631C457.694 350.749 457.494 350.895 457.308 351.071L455.851 350.712Z" fill="#0020B5"/>
<path d="M525.976 356H518.791V354.748L522.263 350.976C522.644 350.556 522.942 350.192 523.156 349.884C523.376 349.577 523.53 349.301 523.618 349.057C523.706 348.808 523.75 348.566 523.75 348.332C523.75 347.838 523.613 347.436 523.339 347.123C523.071 346.806 522.685 346.647 522.182 346.647C521.792 346.647 521.462 346.732 521.193 346.903C520.93 347.069 520.732 347.299 520.6 347.592C520.468 347.885 520.402 348.222 520.402 348.603H518.586C518.586 347.978 518.728 347.406 519.011 346.889C519.294 346.371 519.707 345.958 520.249 345.651C520.791 345.343 521.443 345.189 522.204 345.189C523.278 345.189 524.109 345.456 524.694 345.988C525.28 346.52 525.573 347.238 525.573 348.141C525.573 348.59 525.478 349.032 525.288 349.467C525.097 349.901 524.836 350.336 524.504 350.771C524.172 351.2 523.791 351.642 523.361 352.096L521.084 354.542H525.976V356ZM534.311 351.532C534.311 352.636 534.167 353.527 533.879 354.206C533.591 354.879 533.186 355.373 532.663 355.685C532.141 355.993 531.526 356.146 530.818 356.146C530.119 356.146 529.504 355.993 528.972 355.685C528.444 355.373 528.034 354.879 527.741 354.206C527.448 353.527 527.302 352.636 527.302 351.532V349.767C527.302 348.659 527.446 347.77 527.734 347.101C528.027 346.432 528.437 345.946 528.964 345.644C529.492 345.341 530.105 345.189 530.803 345.189C531.511 345.189 532.126 345.341 532.649 345.644C533.176 345.946 533.584 346.432 533.872 347.101C534.165 347.77 534.311 348.659 534.311 349.767V351.532ZM532.495 349.496C532.495 348.798 532.429 348.241 532.297 347.826C532.17 347.411 531.98 347.113 531.726 346.933C531.477 346.747 531.169 346.654 530.803 346.654C530.446 346.654 530.141 346.747 529.887 346.933C529.638 347.113 529.448 347.411 529.316 347.826C529.184 348.241 529.118 348.798 529.118 349.496V351.789C529.118 352.487 529.184 353.048 529.316 353.473C529.453 353.898 529.648 354.208 529.902 354.403C530.156 354.594 530.461 354.689 530.818 354.689C531.184 354.689 531.491 354.594 531.74 354.403C531.989 354.208 532.177 353.898 532.304 353.473C532.431 353.048 532.495 352.487 532.495 351.789V349.496ZM540.742 356H538.918V347.482L536.318 348.354V346.83L540.515 345.299H540.742V356ZM551.391 351.532C551.391 352.636 551.247 353.527 550.959 354.206C550.671 354.879 550.266 355.373 549.743 355.685C549.221 355.993 548.606 356.146 547.898 356.146C547.199 356.146 546.584 355.993 546.052 355.685C545.525 355.373 545.114 354.879 544.821 354.206C544.528 353.527 544.382 352.636 544.382 351.532V349.767C544.382 348.659 544.526 347.77 544.814 347.101C545.107 346.432 545.517 345.946 546.045 345.644C546.572 345.341 547.185 345.189 547.883 345.189C548.591 345.189 549.206 345.341 549.729 345.644C550.256 345.946 550.664 346.432 550.952 347.101C551.245 347.77 551.391 348.659 551.391 349.767V351.532ZM549.575 349.496C549.575 348.798 549.509 348.241 549.377 347.826C549.25 347.411 549.06 347.113 548.806 346.933C548.557 346.747 548.249 346.654 547.883 346.654C547.526 346.654 547.221 346.747 546.967 346.933C546.718 347.113 546.528 347.411 546.396 347.826C546.264 348.241 546.198 348.798 546.198 349.496V351.789C546.198 352.487 546.264 353.048 546.396 353.473C546.533 353.898 546.728 354.208 546.982 354.403C547.236 354.594 547.541 354.689 547.898 354.689C548.264 354.689 548.571 354.594 548.82 354.403C549.069 354.208 549.257 353.898 549.384 353.473C549.511 353.048 549.575 352.487 549.575 351.789V349.496Z" fill="#0020B5"/>
<path d="M9.00012 36H553.5" stroke="#0020B5"/>
<path d="M9.00012 330H553.5" stroke="#0020B5"/>
<path d="M23.0937 22.8438C22.8203 23.1641 22.4023 23.5117 21.8398 23.8867C21.2852 24.2539 20.5664 24.5703 19.6836 24.8359C18.8086 25.1016 17.7461 25.2344 16.4961 25.2344C15.0195 25.2344 13.7227 24.9141 12.6055 24.2734C11.4883 23.625 10.6172 22.6836 9.99219 21.4492C9.375 20.2148 9.06641 18.7188 9.06641 16.9609V15.9883C9.06641 14.2227 9.36328 12.7227 9.95703 11.4883C10.5586 10.2539 11.3984 9.3125 12.4766 8.66406C13.5547 8.01563 14.8125 7.69141 16.25 7.69141C17.7578 7.69141 18.9922 7.9375 19.9531 8.42969C20.9141 8.91406 21.6445 9.58594 22.1445 10.4453C22.6523 11.3047 22.9648 12.293 23.082 13.4102H19.5078C19.4297 12.8398 19.2695 12.3516 19.0273 11.9453C18.793 11.5313 18.4609 11.2148 18.0312 10.9961C17.6016 10.7695 17.043 10.6563 16.3555 10.6563C15.5977 10.6563 14.9531 10.8555 14.4219 11.2539C13.8906 11.6523 13.4844 12.2461 13.2031 13.0352C12.9297 13.8164 12.793 14.793 12.793 15.9648V16.9609C12.793 18.125 12.9414 19.1016 13.2383 19.8906C13.5352 20.6797 13.9727 21.2734 14.5508 21.6719C15.1367 22.0703 15.8594 22.2695 16.7187 22.2695C17.25 22.2695 17.6914 22.2266 18.043 22.1406C18.3945 22.0547 18.6797 21.9531 18.8984 21.8359C19.1172 21.7109 19.2852 21.5938 19.4023 21.4844V18.6484L16.3086 18.6484L16.3086 15.9648H23.0938L23.0937 22.8438ZM31.543 25.2344C30.207 25.2344 29.0625 24.957 28.1094 24.4023C27.1641 23.8477 26.4375 23.1055 25.9297 22.1758C25.4297 21.2461 25.1797 20.2188 25.1797 19.0938V18.6367C25.1797 17.3711 25.418 16.2461 25.8945 15.2617C26.3789 14.2695 27.0664 13.4922 27.957 12.9297C28.8477 12.3672 29.9102 12.0859 31.1445 12.0859C32.3711 12.0859 33.4023 12.3438 34.2383 12.8594C35.0742 13.375 35.707 14.1016 36.1367 15.0391C36.5664 15.9688 36.7812 17.0625 36.7812 18.3203V19.8203H26.668V17.4414H33.3008V17.1602C33.3008 16.7227 33.2227 16.3359 33.0664 16C32.9102 15.6641 32.6719 15.4023 32.3516 15.2148C32.0391 15.0273 31.6289 14.9336 31.1211 14.9336C30.543 14.9336 30.0781 15.0977 29.7266 15.4258C29.375 15.7539 29.1172 16.1953 28.9531 16.75C28.7969 17.3047 28.7187 17.9336 28.7187 18.6367V19.0938C28.7187 19.7422 28.8398 20.3125 29.082 20.8047C29.3242 21.2969 29.6719 21.6836 30.125 21.9648C30.5781 22.2383 31.125 22.375 31.7656 22.375C32.3672 22.375 32.9297 22.2656 33.4531 22.0469C33.9766 21.8203 34.4219 21.4688 34.7891 20.9922L36.5 22.9492C36.1016 23.5195 35.4844 24.043 34.6484 24.5195C33.8203 24.9961 32.7852 25.2344 31.543 25.2344ZM42.0898 25L38.5391 25V7H42.0898L42.0898 25ZM40.6367 18.2852C40.6367 17.082 40.832 16.0156 41.2227 15.0859C41.6211 14.1563 42.1797 13.4258 42.8984 12.8945C43.6172 12.3555 44.457 12.0859 45.418 12.0859C46.2539 12.0859 46.9844 12.25 47.6094 12.5781C48.2422 12.8984 48.7344 13.4219 49.0859 14.1484C49.4453 14.8672 49.625 15.832 49.625 17.043L49.625 25H46.0742L46.0742 17.0195C46.0742 16.4883 45.9961 16.0742 45.8398 15.7773C45.6914 15.4727 45.4688 15.2617 45.1719 15.1445C44.8828 15.0195 44.5273 14.957 44.1055 14.957C43.6367 14.957 43.2422 15.0391 42.9219 15.2031C42.6016 15.3594 42.3398 15.5859 42.1367 15.8828C41.9414 16.1797 41.8008 16.5313 41.7148 16.9375C41.6289 17.3359 41.5859 17.7695 41.5859 18.2383L40.6367 18.2852ZM58.9062 21.4609C58.9062 21.2266 58.8359 21.0234 58.6953 20.8516C58.5625 20.6797 58.3125 20.5195 57.9453 20.3711C57.5781 20.2227 57.0469 20.0742 56.3516 19.9258C55.5 19.7383 54.7305 19.4844 54.043 19.1641C53.3633 18.8438 52.8281 18.4297 52.4375 17.9219C52.0469 17.4063 51.8516 16.7852 51.8516 16.0586C51.8516 15.3477 52.0547 14.6914 52.4609 14.0898C52.8672 13.4883 53.4492 13.0039 54.207 12.6367C54.9727 12.2695 55.8867 12.0859 56.9492 12.0859C58.0586 12.0859 59.0156 12.2617 59.8203 12.6133C60.625 12.9648 61.2422 13.4492 61.6719 14.0664C62.1016 14.6836 62.3164 15.3906 62.3164 16.1875H58.7773C58.7773 15.7109 58.6289 15.3242 58.332 15.0273C58.043 14.7227 57.5781 14.5703 56.9375 14.5703C56.5938 14.5703 56.293 14.6289 56.0352 14.7461C55.7773 14.8633 55.5781 15.0195 55.4375 15.2148C55.3047 15.4023 55.2383 15.625 55.2383 15.8828C55.2383 16.1172 55.3125 16.3242 55.4609 16.5039C55.6094 16.6836 55.8516 16.8398 56.1875 16.9727C56.5234 17.1055 56.9727 17.2227 57.5352 17.3242C58.4336 17.4961 59.2461 17.7344 59.9727 18.0391C60.6992 18.3359 61.2773 18.7461 61.707 19.2695C62.1367 19.7852 62.3516 20.4727 62.3516 21.332C62.3516 22.082 62.1289 22.7539 61.6836 23.3477C61.2461 23.9336 60.6211 24.3945 59.8086 24.7305C59.0039 25.0664 58.0547 25.2344 56.9609 25.2344C55.7656 25.2344 54.7578 25.0195 53.9375 24.5898C53.1172 24.1602 52.4961 23.6172 52.0742 22.9609C51.6523 22.2969 51.4414 21.6211 51.4414 20.9336H54.793C54.8164 21.3555 54.9297 21.6992 55.1328 21.9648C55.3437 22.2305 55.6133 22.4258 55.9414 22.5508C56.2773 22.6758 56.6445 22.7383 57.043 22.7383C57.4492 22.7383 57.7891 22.6875 58.0625 22.5859C58.3437 22.4766 58.5547 22.3281 58.6953 22.1406C58.8359 21.9453 58.9062 21.7188 58.9062 21.4609ZM70.8008 14.8984L63.3125 14.8984V12.3203L70.8008 12.3203V14.8984ZM68.6562 9.19141V21.0391C68.6562 21.3828 68.6992 21.6484 68.7852 21.8359C68.8789 22.0234 69.0234 22.1523 69.2188 22.2227C69.4141 22.293 69.6562 22.3281 69.9453 22.3281C70.1562 22.3281 70.3438 22.3203 70.5078 22.3047C70.6719 22.2891 70.8125 22.2695 70.9297 22.2461L70.918 24.918C70.6289 25.0195 70.3125 25.0977 69.9688 25.1523C69.6328 25.207 69.2539 25.2344 68.832 25.2344C68.0742 25.2344 67.4141 25.1094 66.8516 24.8594C66.2969 24.6016 65.8672 24.1953 65.5625 23.6406C65.2656 23.0781 65.1172 22.3438 65.1172 21.4375V9.19141H68.6562ZM76.1562 25H72.6172V12.3203H75.9453L76.1562 15.2383V25ZM79.8594 15.6484C79.6875 15.625 79.4844 15.6055 79.25 15.5898C79.0156 15.5664 78.8047 15.5547 78.6172 15.5547C78 15.5547 77.4922 15.6523 77.0938 15.8477C76.6953 16.0352 76.3984 16.3164 76.2031 16.6914C76.0078 17.0664 75.9023 17.5313 75.8867 18.0859L75.1953 17.7813C75.1953 16.6797 75.3359 15.6992 75.6172 14.8398C75.8984 13.9805 76.3125 13.3086 76.8594 12.8242C77.4062 12.332 78.0703 12.0859 78.8516 12.0859C79.0312 12.0859 79.2188 12.0977 79.4141 12.1211C79.6172 12.1445 79.7812 12.1836 79.9062 12.2383L79.8594 15.6484ZM87.3711 25.2344C86.0352 25.2344 84.8906 24.957 83.9375 24.4023C82.9922 23.8477 82.2656 23.1055 81.7578 22.1758C81.2578 21.2461 81.0078 20.2188 81.0078 19.0938V18.6367C81.0078 17.3711 81.2461 16.2461 81.7227 15.2617C82.207 14.2695 82.8945 13.4922 83.7852 12.9297C84.6758 12.3672 85.7383 12.0859 86.9727 12.0859C88.1992 12.0859 89.2305 12.3438 90.0664 12.8594C90.9023 13.375 91.5352 14.1016 91.9648 15.0391C92.3945 15.9688 92.6094 17.0625 92.6094 18.3203V19.8203L82.4961 19.8203V17.4414L89.1289 17.4414V17.1602C89.1289 16.7227 89.0508 16.3359 88.8945 16C88.7383 15.6641 88.5 15.4023 88.1797 15.2148C87.8672 15.0273 87.457 14.9336 86.9492 14.9336C86.3711 14.9336 85.9062 15.0977 85.5547 15.4258C85.2031 15.7539 84.9453 16.1953 84.7812 16.75C84.625 17.3047 84.5469 17.9336 84.5469 18.6367V19.0938C84.5469 19.7422 84.668 20.3125 84.9102 20.8047C85.1523 21.2969 85.5 21.6836 85.9531 21.9648C86.4062 22.2383 86.9531 22.375 87.5938 22.375C88.1953 22.375 88.7578 22.2656 89.2812 22.0469C89.8047 21.8203 90.25 21.4688 90.6172 20.9922L92.3281 22.9492C91.9297 23.5195 91.3125 24.043 90.4766 24.5195C89.6484 24.9961 88.6133 25.2344 87.3711 25.2344ZM99.7578 22.3867C100.156 22.3867 100.508 22.3125 100.812 22.1641C101.117 22.0156 101.352 21.8047 101.516 21.5313C101.688 21.2578 101.777 20.9336 101.785 20.5586H105.113C105.105 21.4727 104.867 22.2813 104.398 22.9844C103.93 23.6875 103.297 24.2383 102.5 24.6367C101.703 25.0352 100.809 25.2344 99.8164 25.2344C98.5039 25.2344 97.4102 24.9492 96.5352 24.3789C95.668 23.8086 95.0156 23.0391 94.5781 22.0703C94.1484 21.1016 93.9336 20.0195 93.9336 18.8242V18.5078C93.9336 17.3047 94.1484 16.2188 94.5781 15.25C95.0156 14.2813 95.668 13.5117 96.5352 12.9414C97.4102 12.3711 98.5 12.0859 99.8047 12.0859C100.852 12.0859 101.77 12.2891 102.559 12.6953C103.355 13.0938 103.977 13.668 104.422 14.418C104.875 15.1602 105.105 16.0508 105.113 17.0898H101.785C101.777 16.6914 101.695 16.332 101.539 16.0117C101.391 15.6836 101.164 15.4219 100.859 15.2266C100.555 15.0313 100.18 14.9336 99.7344 14.9336C99.1094 14.9336 98.6328 15.1016 98.3047 15.4375C97.9844 15.7734 97.7656 16.2148 97.6484 16.7617C97.5312 17.3008 97.4727 17.8828 97.4727 18.5078V18.8242C97.4727 19.457 97.5273 20.0469 97.6367 20.5938C97.7539 21.1328 97.9766 21.5664 98.3047 21.8945C98.6406 22.2227 99.125 22.3867 99.7578 22.3867ZM110.539 25L107 25V6.98828L110.539 6.98828V25ZM113.059 18.6836L110.059 21.6836L108.758 19.1406L111.137 16.0703L114.277 12.3203H118.531L113.059 18.6836ZM111.219 19.2109L113.68 17.1133L118.906 25H114.84L111.219 19.2109ZM125.832 25.2344C124.496 25.2344 123.352 24.957 122.398 24.4023C121.453 23.8477 120.727 23.1055 120.219 22.1758C119.719 21.2461 119.469 20.2188 119.469 19.0938V18.6367C119.469 17.3711 119.707 16.2461 120.184 15.2617C120.668 14.2695 121.355 13.4922 122.246 12.9297C123.137 12.3672 124.199 12.0859 125.434 12.0859C126.66 12.0859 127.691 12.3438 128.527 12.8594C129.363 13.375 129.996 14.1016 130.426 15.0391C130.855 15.9688 131.07 17.0625 131.07 18.3203V19.8203L120.957 19.8203V17.4414H127.59V17.1602C127.59 16.7227 127.512 16.3359 127.355 16C127.199 15.6641 126.961 15.4023 126.641 15.2148C126.328 15.0273 125.918 14.9336 125.41 14.9336C124.832 14.9336 124.367 15.0977 124.016 15.4258C123.664 15.7539 123.406 16.1953 123.242 16.75C123.086 17.3047 123.008 17.9336 123.008 18.6367V19.0938C123.008 19.7422 123.129 20.3125 123.371 20.8047C123.613 21.2969 123.961 21.6836 124.414 21.9648C124.867 22.2383 125.414 22.375 126.055 22.375C126.656 22.375 127.219 22.2656 127.742 22.0469C128.266 21.8203 128.711 21.4688 129.078 20.9922L130.789 22.9492C130.391 23.5195 129.773 24.043 128.938 24.5195C128.109 24.9961 127.074 25.2344 125.832 25.2344ZM147.066 16.1875C147.066 15.2813 146.785 14.5664 146.223 14.043C145.66 13.5195 144.852 13.2578 143.797 13.2578C143.141 13.2578 142.555 13.375 142.039 13.6094C141.531 13.8359 141.129 14.1445 140.832 14.5352C140.543 14.918 140.398 15.3477 140.398 15.8242L138.992 15.8125C138.992 15.1719 139.195 14.5703 139.602 14.0078C140.016 13.4375 140.586 12.9766 141.312 12.625C142.047 12.2656 142.895 12.0859 143.855 12.0859C144.762 12.0859 145.559 12.2383 146.246 12.543C146.941 12.8477 147.484 13.3047 147.875 13.9141C148.273 14.5234 148.473 15.2891 148.473 16.2109V22.3398C148.473 22.7773 148.504 23.2305 148.566 23.6992C148.637 24.168 148.734 24.5547 148.859 24.8594V25H147.359C147.266 24.7188 147.191 24.3672 147.137 23.9453C147.09 23.5156 147.066 23.1094 147.066 22.7266V16.1875ZM147.418 18.6953H144.664C143.234 18.6953 142.113 18.9492 141.301 19.457C140.496 19.957 140.094 20.6406 140.094 21.5078C140.094 22.1953 140.348 22.7813 140.855 23.2656C141.371 23.75 142.066 23.9922 142.941 23.9922C143.723 23.9922 144.41 23.8516 145.004 23.5703C145.605 23.2813 146.098 22.8984 146.48 22.4219C146.871 21.9453 147.137 21.4297 147.277 20.875L147.887 21.6836C147.785 22.0742 147.598 22.4766 147.324 22.8906C147.059 23.2969 146.711 23.6797 146.281 24.0391C145.852 24.3906 145.344 24.6797 144.758 24.9063C144.18 25.125 143.523 25.2344 142.789 25.2344C141.961 25.2344 141.238 25.0781 140.621 24.7656C140.012 24.4531 139.535 24.0273 139.191 23.4883C138.855 22.9414 138.688 22.3242 138.688 21.6367C138.688 20.3867 139.203 19.4063 140.234 18.6953C141.273 17.9766 142.688 17.6172 144.477 17.6172H147.395L147.418 18.6953ZM153.617 25H152.211V12.3203H153.559L153.617 15.0273V25ZM152.68 17.5117C152.742 16.5195 152.988 15.6133 153.418 14.793C153.848 13.9727 154.43 13.3164 155.164 12.8242C155.906 12.332 156.762 12.0859 157.73 12.0859C158.582 12.0859 159.309 12.2422 159.91 12.5547C160.512 12.8672 160.973 13.3672 161.293 14.0547C161.621 14.7344 161.785 15.6328 161.785 16.75V25H160.379V16.7383C160.379 15.8633 160.258 15.1758 160.016 14.6758C159.773 14.1758 159.43 13.8203 158.984 13.6094C158.539 13.3984 158.012 13.293 157.402 13.293C156.73 13.293 156.141 13.4414 155.633 13.7383C155.133 14.0273 154.711 14.4063 154.367 14.875C154.031 15.3359 153.773 15.832 153.594 16.3633C153.414 16.8945 153.32 17.3945 153.312 17.8633L152.68 17.5117ZM176.176 25.2344C175.074 25.2344 174.094 24.9688 173.234 24.4375C172.383 23.8984 171.711 23.1641 171.219 22.2344C170.734 21.2969 170.492 20.2227 170.492 19.0117V18.5078C170.492 17.2031 170.742 16.0703 171.242 15.1094C171.75 14.1484 172.414 13.4063 173.234 12.8828C174.062 12.3516 174.957 12.0859 175.918 12.0859C176.996 12.0859 177.91 12.3359 178.66 12.8359C179.41 13.3281 179.977 14.0117 180.359 14.8867C180.75 15.7617 180.945 16.7617 180.945 17.8867V18.7422L171.348 18.7422V17.5586L179.539 17.5586V17.3945C179.523 16.6836 179.379 16.0156 179.105 15.3906C178.84 14.7656 178.441 14.2578 177.91 13.8672C177.379 13.4688 176.715 13.2695 175.918 13.2695C175.129 13.2695 174.43 13.4922 173.82 13.9375C173.211 14.3828 172.738 15 172.402 15.7891C172.066 16.5703 171.898 17.4766 171.898 18.5078V19.0117C171.898 19.9492 172.078 20.7969 172.438 21.5547C172.805 22.3125 173.316 22.918 173.973 23.3711C174.629 23.8242 175.383 24.0508 176.234 24.0508C176.984 24.0508 177.648 23.9141 178.227 23.6406C178.805 23.3594 179.324 22.918 179.785 22.3164L180.676 22.9844C180.262 23.6016 179.691 24.1328 178.965 24.5781C178.246 25.0156 177.316 25.2344 176.176 25.2344ZM185.258 25H183.863V12.3203H185.258V25ZM183.617 8.65234C183.617 8.38672 183.699 8.16406 183.863 7.98438C184.035 7.79688 184.27 7.70313 184.566 7.70313C184.871 7.70313 185.109 7.79688 185.281 7.98438C185.453 8.16406 185.539 8.38672 185.539 8.65234C185.539 8.91016 185.453 9.12891 185.281 9.30859C185.109 9.48828 184.871 9.57813 184.566 9.57813C184.27 9.57813 184.035 9.48828 183.863 9.30859C183.699 9.12891 183.617 8.91016 183.617 8.65234ZM190.484 25H189.078V12.3203L190.426 12.3203L190.484 15.0273V25ZM189.547 17.5117C189.609 16.5195 189.855 15.6133 190.285 14.793C190.715 13.9727 191.297 13.3164 192.031 12.8242C192.773 12.332 193.629 12.0859 194.598 12.0859C195.449 12.0859 196.176 12.2422 196.777 12.5547C197.379 12.8672 197.84 13.3672 198.16 14.0547C198.488 14.7344 198.652 15.6328 198.652 16.75V25H197.246V16.7383C197.246 15.8633 197.125 15.1758 196.883 14.6758C196.641 14.1758 196.297 13.8203 195.852 13.6094C195.406 13.3984 194.879 13.293 194.27 13.293C193.598 13.293 193.008 13.4414 192.5 13.7383C192 14.0273 191.578 14.4063 191.234 14.875C190.898 15.3359 190.641 15.832 190.461 16.3633C190.281 16.8945 190.188 17.3945 190.18 17.8633L189.547 17.5117ZM207.184 25.2344C206.082 25.2344 205.102 24.9688 204.242 24.4375C203.391 23.8984 202.719 23.1641 202.227 22.2344C201.742 21.2969 201.5 20.2227 201.5 19.0117V18.5078C201.5 17.2031 201.75 16.0703 202.25 15.1094C202.758 14.1484 203.422 13.4063 204.242 12.8828C205.07 12.3516 205.965 12.0859 206.926 12.0859C208.004 12.0859 208.918 12.3359 209.668 12.8359C210.418 13.3281 210.984 14.0117 211.367 14.8867C211.758 15.7617 211.953 16.7617 211.953 17.8867V18.7422H202.355V17.5586H210.547V17.3945C210.531 16.6836 210.387 16.0156 210.113 15.3906C209.848 14.7656 209.449 14.2578 208.918 13.8672C208.387 13.4688 207.723 13.2695 206.926 13.2695C206.137 13.2695 205.438 13.4922 204.828 13.9375C204.219 14.3828 203.746 15 203.41 15.7891C203.074 16.5703 202.906 17.4766 202.906 18.5078V19.0117C202.906 19.9492 203.086 20.7969 203.445 21.5547C203.812 22.3125 204.324 22.918 204.98 23.3711C205.637 23.8242 206.391 24.0508 207.242 24.0508C207.992 24.0508 208.656 23.9141 209.234 23.6406C209.812 23.3594 210.332 22.918 210.793 22.3164L211.684 22.9844C211.27 23.6016 210.699 24.1328 209.973 24.5781C209.254 25.0156 208.324 25.2344 207.184 25.2344ZM216.031 25H214.625V12.3203H215.973L216.031 14.9453V25ZM215.094 17.5117C215.156 16.5195 215.391 15.6133 215.797 14.793C216.203 13.9727 216.77 13.3164 217.496 12.8242C218.223 12.332 219.102 12.0859 220.133 12.0859C221.367 12.0859 222.355 12.4336 223.098 13.1289C223.84 13.8164 224.211 14.9609 224.211 16.5625V25H222.805V16.6094C222.805 15.7656 222.676 15.1055 222.418 14.6289C222.16 14.1445 221.797 13.8008 221.328 13.5977C220.867 13.3945 220.332 13.293 219.723 13.293C219.004 13.293 218.395 13.4414 217.895 13.7383C217.402 14.0273 217 14.4063 216.688 14.875C216.383 15.3359 216.156 15.832 216.008 16.3633C215.867 16.8945 215.789 17.3945 215.773 17.8633L215.094 17.5117ZM223.262 16.7852C223.316 15.9727 223.547 15.207 223.953 14.4883C224.367 13.7695 224.938 13.1914 225.664 12.7539C226.398 12.3086 227.266 12.0859 228.266 12.0859C229.148 12.0859 229.898 12.2461 230.516 12.5664C231.133 12.8789 231.602 13.3789 231.922 14.0664C232.25 14.7461 232.414 15.6367 232.414 16.7383V25H231.008V16.7266C231.008 15.8281 230.879 15.1328 230.621 14.6406C230.363 14.1406 230 13.793 229.531 13.5977C229.07 13.3945 228.535 13.293 227.926 13.293C227.309 13.3008 226.77 13.4141 226.309 13.6328C225.855 13.8516 225.473 14.1328 225.16 14.4766C224.855 14.8203 224.621 15.1953 224.457 15.6016C224.301 16 224.215 16.3867 224.199 16.7617L223.262 16.7852ZM246.652 13.4688L240.289 13.4688V12.3203L246.652 12.3203V13.4688ZM244.016 9.0625V21.918C244.016 22.5039 244.094 22.9492 244.25 23.2539C244.406 23.5508 244.609 23.75 244.859 23.8516C245.117 23.9531 245.391 24.0039 245.68 24.0039C245.891 24.0039 246.09 23.9922 246.277 23.9688C246.473 23.9375 246.648 23.9102 246.805 23.8867L246.863 25.0469C246.691 25.1016 246.469 25.1445 246.195 25.1758C245.922 25.2148 245.648 25.2344 245.375 25.2344C244.836 25.2344 244.359 25.1367 243.945 24.9414C243.531 24.7383 243.203 24.3945 242.961 23.9102C242.727 23.418 242.609 22.75 242.609 21.9063V9.0625H244.016ZM257.293 12.3203H258.805L253.438 27.0391C253.328 27.3281 253.188 27.6484 253.016 28C252.852 28.3516 252.637 28.6875 252.371 29.0078C252.105 29.3359 251.77 29.6016 251.363 29.8047C250.957 30.0156 250.465 30.1211 249.887 30.1211C249.785 30.1211 249.664 30.1133 249.523 30.0977C249.383 30.082 249.246 30.0625 249.113 30.0391C248.98 30.0156 248.879 29.9922 248.809 29.9688V28.7969C248.895 28.8203 249.02 28.8398 249.184 28.8555C249.348 28.8711 249.461 28.8789 249.523 28.8789C250.289 28.8789 250.875 28.6836 251.281 28.293C251.695 27.9102 252.031 27.3398 252.289 26.582L253.332 23.7344L257.293 12.3203ZM253.695 23.2188L254.07 24.6719L253.039 25.2461L248.129 12.3203H249.652L253.695 23.2188ZM262.379 29.875L260.973 29.875V12.3203H262.285L262.379 14.7578V29.875ZM271.191 18.7891C271.191 20.0547 271 21.1719 270.617 22.1406C270.242 23.1094 269.691 23.8672 268.965 24.4141C268.246 24.9609 267.375 25.2344 266.352 25.2344C265.336 25.2344 264.469 25.0313 263.75 24.625C263.039 24.2109 262.477 23.6445 262.062 22.9258C261.648 22.207 261.375 21.3828 261.242 20.4531V17.1836C261.398 16.1602 261.688 15.2695 262.109 14.5117C262.531 13.7461 263.09 13.1523 263.785 12.7305C264.488 12.3008 265.336 12.0859 266.328 12.0859C267.359 12.0859 268.234 12.3516 268.953 12.8828C269.68 13.4063 270.234 14.1523 270.617 15.1211C271 16.0898 271.191 17.2305 271.191 18.543V18.7891ZM269.773 18.543C269.773 17.5586 269.637 16.6719 269.363 15.8828C269.098 15.0859 268.688 14.457 268.133 13.9961C267.578 13.5352 266.871 13.3047 266.012 13.3047C265.34 13.3047 264.766 13.418 264.289 13.6445C263.82 13.8711 263.43 14.168 263.117 14.5352C262.812 14.8945 262.57 15.2891 262.391 15.7188C262.211 16.1484 262.078 16.5664 261.992 16.9727V20.7344C262.141 21.3281 262.375 21.8789 262.695 22.3867C263.023 22.8867 263.461 23.2891 264.008 23.5938C264.555 23.8984 265.23 24.0508 266.035 24.0508C266.887 24.0508 267.586 23.8164 268.133 23.3477C268.688 22.8789 269.098 22.25 269.363 21.4609C269.637 20.6641 269.773 19.7734 269.773 18.7891V18.543ZM275.867 25H274.473V12.3203H275.867V25ZM274.227 8.65234C274.227 8.38672 274.309 8.16406 274.473 7.98438C274.645 7.79688 274.879 7.70313 275.176 7.70313C275.48 7.70313 275.719 7.79688 275.891 7.98438C276.062 8.16406 276.148 8.38672 276.148 8.65234C276.148 8.91016 276.062 9.12891 275.891 9.30859C275.719 9.48828 275.48 9.57813 275.176 9.57813C274.879 9.57813 274.645 9.48828 274.473 9.30859C274.309 9.12891 274.227 8.91016 274.227 8.65234ZM287.293 21.7656C287.293 21.4219 287.203 21.082 287.023 20.7461C286.852 20.4102 286.523 20.1016 286.039 19.8203C285.555 19.5391 284.84 19.2969 283.895 19.0938C282.957 18.8984 282.156 18.6563 281.492 18.3672C280.836 18.0781 280.336 17.707 279.992 17.2539C279.648 16.8008 279.477 16.2266 279.477 15.5313C279.477 14.8984 279.656 14.3242 280.016 13.8086C280.375 13.2852 280.891 12.8672 281.562 12.5547C282.234 12.2422 283.027 12.0859 283.941 12.0859C284.918 12.0859 285.754 12.25 286.449 12.5781C287.152 12.9063 287.691 13.3555 288.066 13.9258C288.441 14.4961 288.629 15.1445 288.629 15.8711H287.211C287.211 15.2148 286.93 14.6172 286.367 14.0781C285.805 13.5391 284.996 13.2695 283.941 13.2695C283.215 13.2695 282.625 13.3828 282.172 13.6094C281.719 13.8281 281.387 14.1094 281.176 14.4531C280.973 14.7891 280.871 15.1328 280.871 15.4844C280.871 15.8594 280.957 16.1953 281.129 16.4922C281.301 16.7813 281.629 17.043 282.113 17.2773C282.598 17.5117 283.312 17.7383 284.258 17.957C285.281 18.1836 286.117 18.4609 286.766 18.7891C287.422 19.1094 287.906 19.5078 288.219 19.9844C288.539 20.4531 288.699 21.0234 288.699 21.6953C288.699 22.3906 288.504 23.0078 288.113 23.5469C287.73 24.0781 287.188 24.4922 286.484 24.7891C285.789 25.0859 284.965 25.2344 284.012 25.2344C282.941 25.2344 282.035 25.0586 281.293 24.707C280.559 24.3477 280 23.8789 279.617 23.3008C279.242 22.7227 279.055 22.1016 279.055 21.4375H280.449C280.496 22.1016 280.703 22.625 281.07 23.0078C281.445 23.3828 281.898 23.6523 282.43 23.8164C282.961 23.9727 283.488 24.0508 284.012 24.0508C284.73 24.0508 285.332 23.9453 285.816 23.7344C286.301 23.5156 286.668 23.2344 286.918 22.8906C287.168 22.5391 287.293 22.1641 287.293 21.7656ZM296.539 24.0508C297.133 24.0508 297.688 23.9375 298.203 23.7109C298.727 23.4766 299.156 23.1406 299.492 22.7031C299.836 22.2578 300.031 21.7148 300.078 21.0742H301.426C301.387 21.8789 301.141 22.5977 300.688 23.2305C300.234 23.8555 299.645 24.3477 298.918 24.707C298.199 25.0586 297.406 25.2344 296.539 25.2344C295.359 25.2344 294.367 24.957 293.562 24.4023C292.758 23.8398 292.152 23.082 291.746 22.1289C291.34 21.168 291.137 20.0938 291.137 18.9063V18.4141C291.137 17.2188 291.34 16.1445 291.746 15.1914C292.16 14.2383 292.766 13.4844 293.562 12.9297C294.367 12.3672 295.355 12.0859 296.527 12.0859C297.434 12.0859 298.246 12.2695 298.965 12.6367C299.691 13.0039 300.273 13.5234 300.711 14.1953C301.148 14.8672 301.387 15.6641 301.426 16.5859H300.078C300.039 15.9063 299.859 15.3203 299.539 14.8281C299.219 14.3281 298.797 13.9453 298.273 13.6797C297.75 13.4063 297.168 13.2695 296.527 13.2695C295.574 13.2695 294.801 13.5117 294.207 13.9961C293.621 14.4805 293.195 15.1133 292.93 15.8945C292.664 16.6758 292.531 17.5156 292.531 18.4141V18.9063C292.531 19.8047 292.664 20.6484 292.93 21.4375C293.195 22.2188 293.621 22.8516 294.207 23.3359C294.801 23.8125 295.578 24.0508 296.539 24.0508ZM305.633 25H304.227V7H305.633V25ZM304.695 17.5117C304.758 16.5195 305.004 15.6133 305.434 14.793C305.863 13.9727 306.445 13.3164 307.18 12.8242C307.922 12.332 308.777 12.0859 309.746 12.0859C310.598 12.0859 311.324 12.2422 311.926 12.5547C312.527 12.8672 312.988 13.3672 313.309 14.0547C313.637 14.7344 313.801 15.6328 313.801 16.75V25H312.395V16.7383C312.395 15.8633 312.273 15.1758 312.031 14.6758C311.789 14.1758 311.445 13.8203 311 13.6094C310.555 13.3984 310.027 13.293 309.418 13.293C308.746 13.293 308.156 13.4414 307.648 13.7383C307.148 14.0273 306.727 14.4063 306.383 14.875C306.047 15.3359 305.789 15.832 305.609 16.3633C305.43 16.8945 305.336 17.3945 305.328 17.8633L304.695 17.5117ZM322.309 25.2344C321.207 25.2344 320.227 24.9688 319.367 24.4375C318.516 23.8984 317.844 23.1641 317.352 22.2344C316.867 21.2969 316.625 20.2227 316.625 19.0117V18.5078C316.625 17.2031 316.875 16.0703 317.375 15.1094C317.883 14.1484 318.547 13.4063 319.367 12.8828C320.195 12.3516 321.09 12.0859 322.051 12.0859C323.129 12.0859 324.043 12.3359 324.793 12.8359C325.543 13.3281 326.109 14.0117 326.492 14.8867C326.883 15.7617 327.078 16.7617 327.078 17.8867V18.7422H317.48V17.5586H325.672V17.3945C325.656 16.6836 325.512 16.0156 325.238 15.3906C324.973 14.7656 324.574 14.2578 324.043 13.8672C323.512 13.4688 322.848 13.2695 322.051 13.2695C321.262 13.2695 320.562 13.4922 319.953 13.9375C319.344 14.3828 318.871 15 318.535 15.7891C318.199 16.5703 318.031 17.4766 318.031 18.5078V19.0117C318.031 19.9492 318.211 20.7969 318.57 21.5547C318.938 22.3125 319.449 22.918 320.105 23.3711C320.762 23.8242 321.516 24.0508 322.367 24.0508C323.117 24.0508 323.781 23.9141 324.359 23.6406C324.938 23.3594 325.457 22.918 325.918 22.3164L326.809 22.9844C326.395 23.6016 325.824 24.1328 325.098 24.5781C324.379 25.0156 323.449 25.2344 322.309 25.2344ZM331.227 25H329.82V12.3203H331.168L331.227 15.0273V25ZM330.289 17.5117C330.352 16.5195 330.598 15.6133 331.027 14.793C331.457 13.9727 332.039 13.3164 332.773 12.8242C333.516 12.332 334.371 12.0859 335.34 12.0859C336.191 12.0859 336.918 12.2422 337.52 12.5547C338.121 12.8672 338.582 13.3672 338.902 14.0547C339.23 14.7344 339.395 15.6328 339.395 16.75V25H337.988V16.7383C337.988 15.8633 337.867 15.1758 337.625 14.6758C337.383 14.1758 337.039 13.8203 336.594 13.6094C336.148 13.3984 335.621 13.293 335.012 13.293C334.34 13.293 333.75 13.4414 333.242 13.7383C332.742 14.0273 332.32 14.4063 331.977 14.875C331.641 15.3359 331.383 15.832 331.203 16.3633C331.023 16.8945 330.93 17.3945 330.922 17.8633L330.289 17.5117ZM357.242 7.9375H358.402L357.465 11.6523L353.516 25H352.402L353.539 20.5L357.242 7.9375ZM352.355 20.3945L353.293 25H352.133L347.762 7.9375H349.238L352.355 20.3945ZM366.465 7.9375H367.941L363.582 25H362.422L363.383 20.3828L366.465 7.9375ZM362.188 20.5L363.312 25H362.199L358.32 11.6523L357.383 7.9375H358.543L362.188 20.5ZM369.254 18.4727C369.254 17.2383 369.488 16.1406 369.957 15.1797C370.426 14.2188 371.082 13.4648 371.926 12.918C372.77 12.3633 373.762 12.0859 374.902 12.0859C376.051 12.0859 377.051 12.3633 377.902 12.918C378.754 13.4648 379.41 14.2188 379.871 15.1797C380.34 16.1406 380.574 17.2383 380.574 18.4727V18.8594C380.574 20.0859 380.34 21.1797 379.871 22.1406C379.41 23.1016 378.754 23.8594 377.902 24.4141C377.059 24.9609 376.066 25.2344 374.926 25.2344C373.777 25.2344 372.777 24.9609 371.926 24.4141C371.082 23.8594 370.426 23.1016 369.957 22.1406C369.488 21.1797 369.254 20.0859 369.254 18.8594V18.4727ZM370.66 18.8594C370.66 19.7813 370.824 20.6367 371.152 21.4258C371.48 22.2148 371.961 22.8516 372.594 23.3359C373.227 23.8125 374.004 24.0508 374.926 24.0508C375.84 24.0508 376.609 23.8125 377.234 23.3359C377.867 22.8516 378.348 22.2148 378.676 21.4258C379.004 20.6367 379.168 19.7813 379.168 18.8594V18.4727C379.168 17.5586 379.004 16.707 378.676 15.918C378.348 15.1289 377.867 14.4922 377.234 14.0078C376.602 13.5156 375.824 13.2695 374.902 13.2695C373.988 13.2695 373.215 13.5156 372.582 14.0078C371.949 14.4922 371.469 15.1289 371.141 15.918C370.82 16.707 370.66 17.5586 370.66 18.4727V18.8594ZM388.156 24.0508C388.75 24.0508 389.305 23.9375 389.82 23.7109C390.344 23.4766 390.773 23.1406 391.109 22.7031C391.453 22.2578 391.648 21.7148 391.695 21.0742H393.043C393.004 21.8789 392.758 22.5977 392.305 23.2305C391.852 23.8555 391.262 24.3477 390.535 24.707C389.816 25.0586 389.023 25.2344 388.156 25.2344C386.977 25.2344 385.984 24.957 385.18 24.4023C384.375 23.8398 383.77 23.082 383.363 22.1289C382.957 21.168 382.754 20.0938 382.754 18.9063V18.4141C382.754 17.2188 382.957 16.1445 383.363 15.1914C383.777 14.2383 384.383 13.4844 385.18 12.9297C385.984 12.3672 386.973 12.0859 388.145 12.0859C389.051 12.0859 389.863 12.2695 390.582 12.6367C391.309 13.0039 391.891 13.5234 392.328 14.1953C392.766 14.8672 393.004 15.6641 393.043 16.5859H391.695C391.656 15.9063 391.477 15.3203 391.156 14.8281C390.836 14.3281 390.414 13.9453 389.891 13.6797C389.367 13.4063 388.785 13.2695 388.145 13.2695C387.191 13.2695 386.418 13.5117 385.824 13.9961C385.238 14.4805 384.812 15.1133 384.547 15.8945C384.281 16.6758 384.148 17.5156 384.148 18.4141V18.9063C384.148 19.8047 384.281 20.6484 384.547 21.4375C384.812 22.2188 385.238 22.8516 385.824 23.3359C386.418 23.8125 387.195 24.0508 388.156 24.0508ZM397.25 25H395.844V7H397.25V25ZM396.312 17.5117C396.375 16.5195 396.621 15.6133 397.051 14.793C397.48 13.9727 398.062 13.3164 398.797 12.8242C399.539 12.332 400.395 12.0859 401.363 12.0859C402.215 12.0859 402.941 12.2422 403.543 12.5547C404.145 12.8672 404.605 13.3672 404.926 14.0547C405.254 14.7344 405.418 15.6328 405.418 16.75V25H404.012V16.7383C404.012 15.8633 403.891 15.1758 403.648 14.6758C403.406 14.1758 403.062 13.8203 402.617 13.6094C402.172 13.3984 401.645 13.293 401.035 13.293C400.363 13.293 399.773 13.4414 399.266 13.7383C398.766 14.0273 398.344 14.4063 398 14.875C397.664 15.3359 397.406 15.832 397.227 16.3633C397.047 16.8945 396.953 17.3945 396.945 17.8633L396.312 17.5117ZM413.926 25.2344C412.824 25.2344 411.844 24.9688 410.984 24.4375C410.133 23.8984 409.461 23.1641 408.969 22.2344C408.484 21.2969 408.242 20.2227 408.242 19.0117V18.5078C408.242 17.2031 408.492 16.0703 408.992 15.1094C409.5 14.1484 410.164 13.4063 410.984 12.8828C411.812 12.3516 412.707 12.0859 413.668 12.0859C414.746 12.0859 415.66 12.3359 416.41 12.8359C417.16 13.3281 417.727 14.0117 418.109 14.8867C418.5 15.7617 418.695 16.7617 418.695 17.8867V18.7422L409.098 18.7422V17.5586L417.289 17.5586V17.3945C417.273 16.6836 417.129 16.0156 416.855 15.3906C416.59 14.7656 416.191 14.2578 415.66 13.8672C415.129 13.4688 414.465 13.2695 413.668 13.2695C412.879 13.2695 412.18 13.4922 411.57 13.9375C410.961 14.3828 410.488 15 410.152 15.7891C409.816 16.5703 409.648 17.4766 409.648 18.5078V19.0117C409.648 19.9492 409.828 20.7969 410.188 21.5547C410.555 22.3125 411.066 22.918 411.723 23.3711C412.379 23.8242 413.133 24.0508 413.984 24.0508C414.734 24.0508 415.398 23.9141 415.977 23.6406C416.555 23.3594 417.074 22.918 417.535 22.3164L418.426 22.9844C418.012 23.6016 417.441 24.1328 416.715 24.5781C415.996 25.0156 415.066 25.2344 413.926 25.2344ZM422.844 25H421.438V12.3203L422.785 12.3203L422.844 15.0273V25ZM421.906 17.5117C421.969 16.5195 422.215 15.6133 422.645 14.793C423.074 13.9727 423.656 13.3164 424.391 12.8242C425.133 12.332 425.988 12.0859 426.957 12.0859C427.809 12.0859 428.535 12.2422 429.137 12.5547C429.738 12.8672 430.199 13.3672 430.52 14.0547C430.848 14.7344 431.012 15.6328 431.012 16.75V25H429.605V16.7383C429.605 15.8633 429.484 15.1758 429.242 14.6758C429 14.1758 428.656 13.8203 428.211 13.6094C427.766 13.3984 427.238 13.293 426.629 13.293C425.957 13.293 425.367 13.4414 424.859 13.7383C424.359 14.0273 423.938 14.4063 423.594 14.875C423.258 15.3359 423 15.832 422.82 16.3633C422.641 16.8945 422.547 17.3945 422.539 17.8633L421.906 17.5117ZM439.449 13.4688L433.086 13.4688V12.3203L439.449 12.3203V13.4688ZM436.812 9.0625V21.918C436.812 22.5039 436.891 22.9492 437.047 23.2539C437.203 23.5508 437.406 23.75 437.656 23.8516C437.914 23.9531 438.188 24.0039 438.477 24.0039C438.688 24.0039 438.887 23.9922 439.074 23.9688C439.27 23.9375 439.445 23.9102 439.602 23.8867L439.66 25.0469C439.488 25.1016 439.266 25.1445 438.992 25.1758C438.719 25.2148 438.445 25.2344 438.172 25.2344C437.633 25.2344 437.156 25.1367 436.742 24.9414C436.328 24.7383 436 24.3945 435.758 23.9102C435.523 23.418 435.406 22.75 435.406 21.9063V9.0625H436.812ZM450.09 16.1875C450.09 15.2813 449.809 14.5664 449.246 14.043C448.684 13.5195 447.875 13.2578 446.82 13.2578C446.164 13.2578 445.578 13.375 445.062 13.6094C444.555 13.8359 444.152 14.1445 443.855 14.5352C443.566 14.918 443.422 15.3477 443.422 15.8242L442.016 15.8125C442.016 15.1719 442.219 14.5703 442.625 14.0078C443.039 13.4375 443.609 12.9766 444.336 12.625C445.07 12.2656 445.918 12.0859 446.879 12.0859C447.785 12.0859 448.582 12.2383 449.27 12.543C449.965 12.8477 450.508 13.3047 450.898 13.9141C451.297 14.5234 451.496 15.2891 451.496 16.2109V22.3398C451.496 22.7773 451.527 23.2305 451.59 23.6992C451.66 24.168 451.758 24.5547 451.883 24.8594V25H450.383C450.289 24.7188 450.215 24.3672 450.16 23.9453C450.113 23.5156 450.09 23.1094 450.09 22.7266V16.1875ZM450.441 18.6953H447.688C446.258 18.6953 445.137 18.9492 444.324 19.457C443.52 19.957 443.117 20.6406 443.117 21.5078C443.117 22.1953 443.371 22.7813 443.879 23.2656C444.395 23.75 445.09 23.9922 445.965 23.9922C446.746 23.9922 447.434 23.8516 448.027 23.5703C448.629 23.2813 449.121 22.8984 449.504 22.4219C449.895 21.9453 450.16 21.4297 450.301 20.875L450.91 21.6836C450.809 22.0742 450.621 22.4766 450.348 22.8906C450.082 23.2969 449.734 23.6797 449.305 24.0391C448.875 24.3906 448.367 24.6797 447.781 24.9063C447.203 25.125 446.547 25.2344 445.812 25.2344C444.984 25.2344 444.262 25.0781 443.645 24.7656C443.035 24.4531 442.559 24.0273 442.215 23.4883C441.879 22.9414 441.711 22.3242 441.711 21.6367C441.711 20.3867 442.227 19.4063 443.258 18.6953C444.297 17.9766 445.711 17.6172 447.5 17.6172H450.418L450.441 18.6953ZM464.891 12.3203V24.7773C464.891 25.8789 464.68 26.8242 464.258 27.6133C463.844 28.4023 463.254 29.0078 462.488 29.4297C461.73 29.8516 460.836 30.0625 459.805 30.0625C459.281 30.0625 458.742 29.9805 458.188 29.8164C457.641 29.6602 457.121 29.418 456.629 29.0898C456.145 28.7695 455.73 28.3711 455.387 27.8945L456.172 27.0391C456.688 27.6719 457.238 28.1367 457.824 28.4336C458.41 28.7305 459.043 28.8789 459.723 28.8789C460.918 28.8789 461.844 28.5195 462.5 27.8008C463.156 27.0898 463.484 26.0977 463.484 24.8242V15.1094L463.578 12.3203H464.891ZM454.684 18.543C454.684 17.2305 454.879 16.0898 455.27 15.1211C455.66 14.1523 456.223 13.4063 456.957 12.8828C457.691 12.3516 458.566 12.0859 459.582 12.0859C460.316 12.0859 460.969 12.207 461.539 12.4492C462.109 12.6914 462.602 13.0391 463.016 13.4922C463.43 13.9453 463.762 14.4844 464.012 15.1094C464.27 15.7266 464.457 16.418 464.574 17.1836V20.3594C464.449 21.2969 464.184 22.1328 463.777 22.8672C463.371 23.6016 462.816 24.1797 462.113 24.6016C461.418 25.0234 460.566 25.2344 459.559 25.2344C458.551 25.2344 457.68 24.9609 456.945 24.4141C456.219 23.8672 455.66 23.1094 455.27 22.1406C454.879 21.1719 454.684 20.0547 454.684 18.7891V18.543ZM456.09 18.7891C456.09 19.7734 456.223 20.6602 456.488 21.4492C456.754 22.2305 457.16 22.8555 457.707 23.3242C458.262 23.7852 458.965 24.0156 459.816 24.0156C460.621 24.0156 461.293 23.8633 461.832 23.5586C462.371 23.2461 462.801 22.8359 463.121 22.3281C463.449 21.8125 463.688 21.2461 463.836 20.6289V16.9727C463.75 16.5664 463.617 16.1484 463.438 15.7188C463.266 15.2891 463.023 14.8945 462.711 14.5352C462.406 14.168 462.016 13.8711 461.539 13.6445C461.07 13.418 460.504 13.3047 459.84 13.3047C458.98 13.3047 458.273 13.5352 457.719 13.9961C457.164 14.457 456.754 15.0859 456.488 15.8828C456.223 16.6719 456.09 17.5586 456.09 18.543V18.7891Z" fill="#0020B5"/>
</svg>
